<?xml version="1.0" encoding="UTF-8"?>
<svg id="Layer_2" data-name="Layer 2" xmlns="http://www.w3.org/2000/svg" xmlns:xlink="http://www.w3.org/1999/xlink" viewBox="0 0 227.73 221.32">
  <defs>
    <style>
      .cls-1 {
        fill: url(#linear-gradient-15);
      }

      .cls-2 {
        fill: url(#linear-gradient-13);
      }

      .cls-3 {
        fill: url(#linear-gradient-2);
      }

      .cls-4 {
        fill: url(#linear-gradient-10);
      }

      .cls-5 {
        fill: url(#linear-gradient-12);
      }

      .cls-6 {
        fill: url(#linear-gradient-4);
      }

      .cls-7 {
        fill: url(#linear-gradient-3);
      }

      .cls-8 {
        fill: url(#linear-gradient-5);
      }

      .cls-9 {
        fill: url(#linear-gradient-8);
      }

      .cls-10 {
        fill: url(#linear-gradient-14);
      }

      .cls-11 {
        fill: url(#linear-gradient-7);
      }

      .cls-12 {
        fill: url(#linear-gradient-9);
      }

      .cls-13 {
        fill: url(#linear-gradient-11);
      }

      .cls-14 {
        fill: url(#linear-gradient-6);
      }

      .cls-15 {
        fill: url(#linear-gradient);
      }
    </style>
    <linearGradient id="linear-gradient" x1="-73.89" y1="247.63" x2="86.96" y2="55.27" gradientUnits="userSpaceOnUse">
      <stop offset=".39" stop-color="#fdf9f6"/>
      <stop offset=".95" stop-color="#feb687"/>
    </linearGradient>
    <linearGradient id="linear-gradient-2" x1="-74.06" y1="247.49" x2="86.79" y2="55.14" xlink:href="#linear-gradient"/>
    <linearGradient id="linear-gradient-3" x1="-77.15" y1="244.9" x2="83.7" y2="52.55" xlink:href="#linear-gradient"/>
    <linearGradient id="linear-gradient-4" x1="-48.34" y1="268.99" x2="112.51" y2="76.64" xlink:href="#linear-gradient"/>
    <linearGradient id="linear-gradient-5" x1="-25.51" y1="288.08" x2="135.33" y2="95.73" xlink:href="#linear-gradient"/>
    <linearGradient id="linear-gradient-6" x1="-34.91" y1="280.22" x2="125.93" y2="87.87" xlink:href="#linear-gradient"/>
    <linearGradient id="linear-gradient-7" x1="-4.91" y1="305.3" x2="155.93" y2="112.95" xlink:href="#linear-gradient"/>
    <linearGradient id="linear-gradient-8" x1="-101.18" y1="224.81" x2="59.67" y2="32.46" xlink:href="#linear-gradient"/>
    <linearGradient id="linear-gradient-9" x1="-27.84" y1="286.14" x2="133.01" y2="93.78" xlink:href="#linear-gradient"/>
    <linearGradient id="linear-gradient-10" x1="11.48" y1="319.01" x2="172.32" y2="126.66" xlink:href="#linear-gradient"/>
    <linearGradient id="linear-gradient-11" x1="15.02" y1="321.97" x2="175.86" y2="129.62" xlink:href="#linear-gradient"/>
    <linearGradient id="linear-gradient-12" x1="12.39" y1="319.77" x2="173.23" y2="127.42" xlink:href="#linear-gradient"/>
    <linearGradient id="linear-gradient-13" x1="-93.42" y1="231.29" x2="67.42" y2="38.94" xlink:href="#linear-gradient"/>
    <linearGradient id="linear-gradient-14" x1="-28.9" y1="285.25" x2="131.95" y2="92.89" xlink:href="#linear-gradient"/>
    <linearGradient id="linear-gradient-15" x1="-6.43" y1="304.03" x2="154.41" y2="111.68" xlink:href="#linear-gradient"/>
  </defs>
  <g id="Layer_1-2" data-name="Layer 1">
    <g>
      <path class="cls-15" d="M46.09,123.63h5.07v-37.83h-5.2v-2.23c-.02-.18-.03-.37-.02-.59,0-.13.01-.26.02-.39v-6.29h-2v9.51h-5.28v37.67h5.28v9.08c.01.67.02,1.34.04,2.01h2.09v-10.93Z"/>
      <path class="cls-3" d="M27.11,145.99h5.07v-37.83h-5.2v-2.23c-.02-.18-.03-.37-.02-.59,0-.13.01-.26.02-.39v-6.29h-2v9.51h-5.28v37.67h5.28v9.08c.01.67.02,1.34.04,2.01h2.09v-10.93Z"/>
      <path class="cls-7" d="M8.19,162.32h5.07v-37.83h-5.2v-2.23c-.02-.18-.03-.37-.02-.59,0-.13.01-.26.02-.39v-6.29h-2v9.51H.78v37.67h5.28v9.08c.01.67.02,1.34.04,2.01h2.09v-10.93Z"/>
      <g>
        <path class="cls-6" d="M88.34,83.17c-8.34,6.71-16.38,13.17-24.43,19.64l-.56-.37C76.94,68.27,89.87,33.83,104.41.04c.2-.01.39-.03.59-.04,13.58,34.16,27.16,68.31,40.75,102.47-.21.16-.42.31-.64.47-8.07-6.48-16.14-12.97-24.57-19.74,0,1.91.02,3.34,0,4.77-.14,8.23.04,16.48-.52,24.69-.75,11.06-2.25,22.07-4.81,32.88-2.31,9.77-5.82,19.09-11.36,27.52-2.94,4.48-7.16,7.57-12.21,10.24-.23-1.59-.55-2.91-.58-4.25-.41-14.42-.76-28.84-1.15-43.26-.45-17.05-.92-34.1-1.39-51.15,0-.34-.07-.67-.17-1.47Z"/>
        <path class="cls-8" d="M83.79,119.16c.19,25.43.63,50.85.47,76.73-4.73-1.85-9.11-3.53-13.46-5.31-.43-.17-.74-.86-.91-1.37-.15-.48-.04-1.04-.05-1.57-.19-13.64-.37-27.28-.59-40.92-.03-1.61.44-2.8,1.65-4,4-3.97,6.56-8.92,8.74-14.04,1.16-2.73,1.98-5.61,2.96-8.41.14-.4.35-.79.52-1.18l.67.07Z"/>
        <path class="cls-14" d="M62.38,150.79v35.73c-4.29-3.18-8.02-6.26-12.08-8.81-2.05-1.29-2.17-2.75-2.15-4.72.05-4.37.01-8.75-.09-13.12-.04-1.72.38-2.52,2.23-3.24,3.87-1.49,7.5-3.61,11.23-5.47.2-.1.41-.18.86-.37Z"/>
      </g>
      <g>
        <path class="cls-11" d="M194.05,150.2c-.55,1.12-1.11,2.24-1.63,3.37-4,8.71-9.17,16.64-15.53,23.82-14.43,16.28-32.3,26.67-53.62,30.92-16.77,3.34-33.32,2.33-49.51-3.43-12.22-4.35-23.44-10.47-33.04-19.24-4.21-3.85-8.02-8.14-11.96-12.29h-13.09c2.67,3.45,5.2,7.01,8.06,10.3,5.48,6.32,11.41,12.21,18.44,16.81,5.05,3.3,10.17,6.56,15.53,9.31,6.35,3.27,12.99,6.02,20,7.58,5.67,1.27,11.36,2.59,17.11,3.34,8.07,1.06,16.19.69,24.27-.42,7.94-1.09,15.73-2.81,23.24-5.63,10.61-3.99,20.48-9.39,29.26-16.58,8.48-6.94,16.11-14.71,22.13-23.96,4.89-7.51,8.96-15.43,12.03-23.85,0-.01,0-.03,0-.05h-11.71Z"/>
        <path class="cls-9" d="M83.81,16.77c-24.99,5.22-45.43,17.58-61.39,37.54C9.79,70.09,1.65,93.53,0,107.04h9.63c.47-.76.75-1.64.93-2.66,1.42-7.82,3.54-15.43,6.82-22.72,7.03-15.62,17.31-28.57,31.09-38.74,9.97-7.36,20.92-12.65,32.94-15.68.9-.23,1.72-.48,2.41-.91v-9.55Z"/>
        <path class="cls-12" d="M205.86,91.23c-2.95-9.81-6.99-19.12-12.44-27.84-6.9-11.03-15.48-20.45-26.04-28.05-12.4-8.92-25.88-15.5-40.93-18.61-.48-.1-.95-.19-1.44-.28v9.64c.38.25.82.44,1.34.61,5.04,1.63,10.14,3.12,15.02,5.13,8.85,3.65,16.71,8.99,24.09,15.04,6.36,5.21,11.81,11.24,16.57,17.95,5.76,8.12,9.94,16.99,13.24,26.32.22.61.36,1.32.51,2h10.43c0-.57-.11-1.21-.33-1.93Z"/>
        <path class="cls-4" d="M221.57,98.86c-4.7-1.42-10.25.31-12.01,4.29-.94,2.11-2.19,2.16-3.92,2.16-10.69,0-21.38,0-32.07.05-.74,0-1.66.23-2.2.7-2.28,2-4.45,4.13-6.65,6.22-4.83,4.58-9.64,9.18-14.52,13.7-.61.57-1.6.99-2.43,1.02-3.09.12-6.19.05-9.28.05v.06c-2.86,0-5.72-.03-8.58,0v4.22c.68.01,1.35.03,2.03.04,6.07.09,12.14.2,18.21.22.59,0,1.29-.44,1.74-.88,4.08-3.91,8.1-7.88,12.18-11.79,2.69-2.58,5.38-5.16,8.19-7.6.81-.7,2.03-1.29,3.06-1.3,10.69-.12,21.38-.09,32.06-.14,1.03,0,1.51.39,1.89,1.38,1.57,4.12,5.91,6.34,10.57,5.56,3.82-.64,7.59-4.66,7.86-8.39.31-4.3-2.33-8.43-6.13-9.58Z"/>
        <path class="cls-13" d="M210.5,126.1c-3.41-5.27-12.94-6.38-16.67,1.31-.66,1.36-1.47,1.7-2.83,1.68-7.77-.1-15.54-.09-23.3-.22-2.38-.04-4.26.66-5.95,2.37-2.55,2.57-5.24,5-7.93,7.42-.57.52-1.38,1.03-2.1,1.07-2.8.16-5.6.15-8.41.17-5.45.05-10.89.06-16.34.12v4.04c2.99.06,5.97.02,8.96.15,4.6.2,9.18.71,13.78.74,2.13.02,4.76-.13,6.3-1.33,3.19-2.48,5.84-5.68,8.64-8.64.95-1.01,1.98-1.51,3.38-1.49,3.8.05,7.59.02,11.39.02,0,.03,0,.07,0,.1,4.03,0,8.06.01,12.09,0,1.11,0,1.81.4,2.34,1.43,2.49,4.85,7.14,6.63,12.25,4.77,5.39-1.96,7.48-8.95,4.41-13.7Z"/>
        <path class="cls-5" d="M167.34,145.85c-3.49-.73-8.14,1.48-9.87,5.17-.64,1.36-1.4,1.66-2.78,1.67-10.04.06-20.08.24-30.12.3-.26,0-.5.01-.72.03v4.26c4.93-.03,9.86,0,14.79,0,0,0,0,0,0,.01,4.9,0,9.81.1,14.71-.05,2.08-.06,3.31.37,4.38,2.39,2.07,3.92,6.62,5.64,10.77,4.55,3.66-.95,6.55-4.78,6.85-8.64.27-3.49-2.62-8.55-8.01-9.69Z"/>
        <path class="cls-2" d="M78.55,34.06c-13.15,4.1-24.65,11.18-34.73,20.63-9.34,8.75-16.22,19.15-20.97,30.89h4.97c.51-.64.97-1.37,1.37-2.22,3.86-8.29,9.17-15.67,15.6-22.24,9.52-9.72,20.36-17.38,33.33-21.8.14-.05.29-.14.43-.25v-5.01Z"/>
        <path class="cls-10" d="M182.14,87.06c.17.12.34.22.51.34h4.32c-4.53-12.78-12.03-23.7-21.98-33.01-9.96-9.32-21.34-16.23-34.23-20.41v5.4c.1.04.2.07.28.11,4.9,2.28,9.99,4.21,14.66,6.89,11.45,6.57,20.77,15.6,28.32,26.38,2.72,3.87,4.81,8.19,7.16,12.31.37.64.43,1.62.95,1.98Z"/>
        <path class="cls-1" d="M168.98,173.63c-2.57,2.24-4.93,4.73-7.51,6.96-10.07,8.68-21.58,14.74-34.43,18.06-4.78,1.24-9.73,1.86-14.64,2.53-7.34,1-14.74.65-22-.51-7.58-1.21-14.98-3.31-21.97-6.7-6.53-3.17-12.88-6.6-18.62-11.08-1.82-1.42-3.7-2.81-5.36-4.41-2.61-2.54-5.08-5.21-7.6-7.84h-1.55c4.56,6.18,10.31,11.16,16.52,15.71,14.2,10.41,30.11,16.42,47.59,17.6,21.32,1.44,40.76-4.41,58.13-16.89,5.47-3.93,10.41-8.45,14.89-13.43h-3.44Z"/>
      </g>
    </g>
  </g>
</svg>