<?xml version="1.0" encoding="UTF-8"?>
<svg id="Layer_2" data-name="Layer 2" xmlns="http://www.w3.org/2000/svg" xmlns:xlink="http://www.w3.org/1999/xlink" viewBox="0 0 26.46 5.6">
  <defs>
    <style>
      .cls-1 {
        fill: url(#linear-gradient-15);
      }

      .cls-2 {
        fill: url(#linear-gradient-13);
      }

      .cls-3 {
        fill: url(#linear-gradient-28);
      }

      .cls-4 {
        fill: url(#linear-gradient-42);
      }

      .cls-5 {
        fill: url(#linear-gradient-2);
      }

      .cls-6 {
        fill: url(#linear-gradient-43);
      }

      .cls-7 {
        fill: url(#linear-gradient-25);
      }

      .cls-8 {
        fill: url(#linear-gradient-10);
      }

      .cls-9 {
        fill: url(#linear-gradient-12);
      }

      .cls-10 {
        fill: url(#linear-gradient-40);
      }

      .cls-11 {
        fill: url(#linear-gradient-27);
      }

      .cls-12 {
        fill: url(#linear-gradient-37);
      }

      .cls-13 {
        fill: url(#linear-gradient-39);
      }

      .cls-14 {
        fill: url(#linear-gradient-26);
      }

      .cls-15 {
        fill: url(#linear-gradient-4);
      }

      .cls-16 {
        fill: url(#linear-gradient-35);
      }

      .cls-17 {
        fill: url(#linear-gradient-30);
      }

      .cls-18 {
        fill: url(#linear-gradient-44);
      }

      .cls-19 {
        fill: url(#linear-gradient-3);
      }

      .cls-20 {
        fill: url(#linear-gradient-34);
      }

      .cls-21 {
        fill: url(#linear-gradient-5);
      }

      .cls-22 {
        fill: url(#linear-gradient-38);
      }

      .cls-23 {
        fill: url(#linear-gradient-22);
      }

      .cls-24 {
        fill: url(#linear-gradient-24);
      }

      .cls-25 {
        fill: url(#linear-gradient-33);
      }

      .cls-26 {
        fill: url(#linear-gradient-8);
      }

      .cls-27 {
        fill: url(#linear-gradient-14);
      }

      .cls-28 {
        fill: url(#linear-gradient-29);
      }

      .cls-29 {
        fill: url(#linear-gradient-20);
      }

      .cls-30 {
        fill: url(#linear-gradient-17);
      }

      .cls-31 {
        fill: url(#linear-gradient-7);
      }

      .cls-32 {
        fill: url(#linear-gradient-9);
      }

      .cls-33 {
        fill: url(#linear-gradient-11);
      }

      .cls-34 {
        fill: url(#linear-gradient-19);
      }

      .cls-35 {
        fill: url(#linear-gradient-6);
      }

      .cls-36 {
        fill: url(#linear-gradient-36);
      }

      .cls-37 {
        fill: url(#linear-gradient-21);
      }

      .cls-38 {
        fill: url(#linear-gradient-32);
      }

      .cls-39 {
        fill: url(#linear-gradient-41);
      }

      .cls-40 {
        fill: url(#linear-gradient-16);
      }

      .cls-41 {
        fill: url(#linear-gradient);
      }

      .cls-42 {
        fill: url(#linear-gradient-23);
      }

      .cls-43 {
        fill: url(#linear-gradient-31);
      }

      .cls-44 {
        fill: url(#linear-gradient-18);
      }
    </style>
    <linearGradient id="linear-gradient" x1="13.91" y1="4.72" x2="23.95" y2="4" gradientUnits="userSpaceOnUse">
      <stop offset=".39" stop-color="#fdf9f6"/>
      <stop offset=".95" stop-color="#feb687"/>
    </linearGradient>
    <linearGradient id="linear-gradient-2" x1="13.91" y1="4.75" x2="23.95" y2="4.03" xlink:href="#linear-gradient"/>
    <linearGradient id="linear-gradient-3" x1="13.92" y1="4.89" x2="23.96" y2="4.17" xlink:href="#linear-gradient"/>
    <linearGradient id="linear-gradient-4" x1="13.92" y1="4.87" x2="23.96" y2="4.16" xlink:href="#linear-gradient"/>
    <linearGradient id="linear-gradient-5" x1="13.93" y1="4.99" x2="23.97" y2="4.28" xlink:href="#linear-gradient"/>
    <linearGradient id="linear-gradient-6" x1="13.93" y1="5.03" x2="23.97" y2="4.32" xlink:href="#linear-gradient"/>
    <linearGradient id="linear-gradient-7" x1="13.93" y1="4.99" x2="23.97" y2="4.28" xlink:href="#linear-gradient"/>
    <linearGradient id="linear-gradient-8" x1="13.93" y1="5.05" x2="23.97" y2="4.34" xlink:href="#linear-gradient"/>
    <linearGradient id="linear-gradient-9" x1="13.94" y1="5.15" x2="23.98" y2="4.44" xlink:href="#linear-gradient"/>
    <linearGradient id="linear-gradient-10" x1="13.94" y1="5.19" x2="23.98" y2="4.48" xlink:href="#linear-gradient"/>
    <linearGradient id="linear-gradient-11" x1="13.94" y1="5.25" x2="23.99" y2="4.54" xlink:href="#linear-gradient"/>
    <linearGradient id="linear-gradient-12" x1="13.94" y1="5.18" x2="23.98" y2="4.47" xlink:href="#linear-gradient"/>
    <linearGradient id="linear-gradient-13" x1="13.94" y1="5.26" x2="23.99" y2="4.54" xlink:href="#linear-gradient"/>
    <linearGradient id="linear-gradient-14" x1="13.95" y1="5.37" x2="24" y2="4.66" xlink:href="#linear-gradient"/>
    <linearGradient id="linear-gradient-15" x1="13.95" y1="5.41" x2="24" y2="4.7" xlink:href="#linear-gradient"/>
    <linearGradient id="linear-gradient-16" x1="13.95" y1="5.37" x2="24" y2="4.66" xlink:href="#linear-gradient"/>
    <linearGradient id="linear-gradient-17" x1="13.95" y1="5.39" x2="24" y2="4.67" xlink:href="#linear-gradient"/>
    <linearGradient id="linear-gradient-18" x1="13.96" y1="5.52" x2="24.01" y2="4.8" xlink:href="#linear-gradient"/>
    <linearGradient id="linear-gradient-19" x1="13.97" y1="5.66" x2="24.02" y2="4.94" xlink:href="#linear-gradient"/>
    <linearGradient id="linear-gradient-20" x1="-1.87" y1="6.26" x2="2.2" y2="1.4" xlink:href="#linear-gradient"/>
    <linearGradient id="linear-gradient-21" x1="-1.87" y1="6.26" x2="2.2" y2="1.39" xlink:href="#linear-gradient"/>
    <linearGradient id="linear-gradient-22" x1="-1.95" y1="6.19" x2="2.12" y2="1.33" xlink:href="#linear-gradient"/>
    <linearGradient id="linear-gradient-23" x1="-1.22" y1="6.8" x2="2.85" y2="1.94" xlink:href="#linear-gradient"/>
    <linearGradient id="linear-gradient-24" x1="-.65" y1="7.29" x2="3.42" y2="2.42" xlink:href="#linear-gradient"/>
    <linearGradient id="linear-gradient-25" x1="-.88" y1="7.09" x2="3.19" y2="2.22" xlink:href="#linear-gradient"/>
    <linearGradient id="linear-gradient-26" x1="-.12" y1="7.72" x2="3.94" y2="2.86" xlink:href="#linear-gradient"/>
    <linearGradient id="linear-gradient-27" x1="-2.56" y1="5.69" x2="1.51" y2=".82" xlink:href="#linear-gradient"/>
    <linearGradient id="linear-gradient-28" x1="-.7" y1="7.24" x2="3.36" y2="2.37" xlink:href="#linear-gradient"/>
    <linearGradient id="linear-gradient-29" x1=".29" y1="8.07" x2="4.36" y2="3.2" xlink:href="#linear-gradient"/>
    <linearGradient id="linear-gradient-30" x1=".38" y1="8.14" x2="4.45" y2="3.28" xlink:href="#linear-gradient"/>
    <linearGradient id="linear-gradient-31" x1=".31" y1="8.09" x2="4.38" y2="3.22" xlink:href="#linear-gradient"/>
    <linearGradient id="linear-gradient-32" x1="-2.36" y1="5.85" x2="1.71" y2=".98" xlink:href="#linear-gradient"/>
    <linearGradient id="linear-gradient-33" x1="-.73" y1="7.22" x2="3.34" y2="2.35" xlink:href="#linear-gradient"/>
    <linearGradient id="linear-gradient-34" x1="-.16" y1="7.69" x2="3.91" y2="2.83" xlink:href="#linear-gradient"/>
    <linearGradient id="linear-gradient-35" x1="6.02" y1="3.25" x2="19.98" y2="-1.4" xlink:href="#linear-gradient"/>
    <linearGradient id="linear-gradient-36" x1="6.32" y1="4.18" x2="20.29" y2="-.48" xlink:href="#linear-gradient"/>
    <linearGradient id="linear-gradient-37" x1="6.57" y1="4.9" x2="20.53" y2=".25" xlink:href="#linear-gradient"/>
    <linearGradient id="linear-gradient-38" x1="6.8" y1="5.61" x2="20.77" y2=".95" xlink:href="#linear-gradient"/>
    <linearGradient id="linear-gradient-39" x1="7.09" y1="6.48" x2="21.06" y2="1.83" xlink:href="#linear-gradient"/>
    <linearGradient id="linear-gradient-40" x1="7.17" y1="6.72" x2="21.14" y2="2.06" xlink:href="#linear-gradient"/>
    <linearGradient id="linear-gradient-41" x1="7.41" y1="7.44" x2="21.38" y2="2.78" xlink:href="#linear-gradient"/>
    <linearGradient id="linear-gradient-42" x1="7.49" y1="7.69" x2="21.46" y2="3.03" xlink:href="#linear-gradient"/>
    <linearGradient id="linear-gradient-43" x1="7.76" y1="8.48" x2="21.73" y2="3.83" xlink:href="#linear-gradient"/>
    <linearGradient id="linear-gradient-44" x1="7.91" y1="8.93" x2="21.88" y2="4.27" xlink:href="#linear-gradient"/>
  </defs>
  <g id="Layer_1-2" data-name="Layer 1">
    <g>
      <g>
        <path class="cls-41" d="M15.54,4.3s.02,0,.02.02v.09s0,.02-.02.02h-.23v.5s0,.02-.02.02h-.08s-.02,0-.02-.02v-.5h-.23s-.02,0-.02-.02v-.09s0-.02.02-.02h.57Z"/>
        <path class="cls-5" d="M15.71,4.26s.02,0,.02.02v.17h.27c.13,0,.17.05.17.19v.3s0,.02-.02.02h-.07s-.02,0-.02-.02v-.27c0-.08-.01-.1-.07-.1h-.27v.37s0,.02-.02.02h-.07s-.02,0-.02-.02v-.66s0-.02.02-.02h.07Z"/>
        <path class="cls-19" d="M16.63,4.44c.1,0,.13.04.13.15v.1s-.01.05-.04.05h-.37v.02c0,.06.02.08.08.08h.3s.01,0,.01.02v.08s0,.02-.01.02h-.31c-.13,0-.17-.05-.17-.19v-.14c0-.14.04-.19.17-.19h.21ZM16.64,4.65s.01,0,.01-.02v-.03s0-.05-.04-.05h-.18c-.06,0-.08.02-.08.08v.02h.29Z"/>
        <path class="cls-15" d="M17.21,4.3c.05,0,.06.01.08.05l.27.45s0,0,0,0h0s0,0,0,0v-.49s0-.02.02-.02h.08s.02,0,.02.02v.53c0,.07-.02.1-.07.1h-.06c-.05,0-.06-.01-.08-.05l-.27-.45s0,0,0,0h0s0,0,0,0v.49s0,.02-.02.02h-.08s-.02,0-.02-.02v-.53c0-.07.02-.1.06-.1h.07Z"/>
        <path class="cls-21" d="M18.16,4.44c.1,0,.13.04.13.15v.1s-.01.05-.04.05h-.37v.02c0,.06.02.08.08.08h.3s.01,0,.01.02v.08s0,.02-.01.02h-.31c-.13,0-.17-.05-.17-.19v-.14c0-.14.04-.19.17-.19h.21ZM18.17,4.65s.01,0,.01-.02v-.03s0-.05-.04-.05h-.18c-.06,0-.08.02-.08.08v.02h.29Z"/>
        <path class="cls-35" d="M18.45,4.44s.02,0,.02.01l.14.16.14-.16s.01-.01.02-.01h.09s.02.01,0,.02l-.19.23.2.24s0,.02,0,.02h-.1s-.02,0-.02-.01l-.15-.18-.15.18s-.01.01-.02.01h-.09s-.02-.01,0-.02l.2-.24-.19-.22s0-.02,0-.02h.1Z"/>
        <path class="cls-31" d="M18.98,4.44v-.12s0-.02.02-.02h.07s.02,0,.02.02v.12h.13s.01,0,.01.02v.08s0,.02-.01.02h-.13v.21c0,.05.01.07.06.07h.07s.01,0,.01.02v.08s0,.02-.01.02h-.09c-.11,0-.15-.05-.15-.19v-.21h-.07s-.01,0-.01-.02v-.08s0-.02.01-.02h.07Z"/>
        <path class="cls-26" d="M20.06,4.3s.02,0,.02.02v.09s0,.02-.02.02h-.32c-.07,0-.09.03-.09.12h0s.41,0,.41,0c.01,0,.02,0,.02.02v.08s0,.02-.02.02h-.41c0,.11.02.14.09.14h.32s.02,0,.02.02v.09s0,.02-.02.02h-.32c-.15,0-.2-.07-.2-.25v-.16c0-.18.06-.25.2-.25h.32Z"/>
        <path class="cls-32" d="M20.53,4.44s.01,0,.01.02v.08s0,.02-.01.02h-.19c-.06,0-.08.02-.08.1v.28s0,.02-.02.02h-.07s-.02,0-.02-.02v-.3c0-.14.04-.19.17-.19h.2Z"/>
        <path class="cls-8" d="M20.92,4.44c.13,0,.17.05.17.19v.25c0,.06-.01.07-.05.07h-.35c-.08,0-.11-.04-.11-.13v-.04c0-.09.03-.13.11-.13h.3c0-.07-.02-.09-.08-.09h-.3s-.01,0-.01-.02v-.08s0-.02.01-.02h.31ZM20.99,4.81v-.07h-.27s-.04.01-.04.04v.02s0,.04.04.04h.24s.02,0,.02-.03Z"/>
        <path class="cls-33" d="M21.79,4.44c.13,0,.17.05.17.19v.14c0,.14-.05.19-.17.19h-.21c-.13,0-.17-.05-.17-.19v-.14c0-.14.05-.19.17-.19h.21ZM21.51,4.74c0,.08.02.1.08.1h.19c.06,0,.08-.02.08-.1v-.09c0-.08-.02-.1-.08-.1h-.19c-.06,0-.08.02-.08.1v.09Z"/>
        <path class="cls-9" d="M22.1,4.44v-.02c0-.14.03-.19.15-.19h.09s.01,0,.01.02v.08s0,.02-.01.02h-.07s-.06.02-.06.07v.02h.13s.01,0,.01.02v.08s0,.02-.01.02h-.13v.38s0,.02-.02.02h-.07s-.02,0-.02-.02v-.38h-.07s-.01,0-.01-.02v-.08s0-.02.01-.02h.07Z"/>
        <path class="cls-2" d="M23.2,4.3s.02,0,.02.02v.09s0,.02-.02.02h-.23v.5s0,.02-.02.02h-.08s-.02,0-.02-.02v-.5h-.23s-.02,0-.02-.02v-.09s0-.02.02-.02h.57Z"/>
        <path class="cls-27" d="M23.64,4.44s.01,0,.01.02v.08s0,.02-.01.02h-.19c-.06,0-.08.02-.08.1v.28s0,.02-.02.02h-.07s-.02,0-.02-.02v-.3c0-.14.04-.19.17-.19h.2Z"/>
        <path class="cls-1" d="M24.04,4.44c.13,0,.17.05.17.19v.25c0,.06-.01.07-.05.07h-.35c-.08,0-.11-.04-.11-.13v-.04c0-.09.03-.13.11-.13h.3c0-.07-.02-.09-.08-.09h-.3s-.01,0-.01-.02v-.08s0-.02.01-.02h.31ZM24.11,4.81v-.07h-.27s-.04.01-.04.04v.02s0,.04.04.04h.24s.02,0,.02-.03Z"/>
        <path class="cls-40" d="M24.73,4.44v-.17s0-.02.02-.02h.07s.02,0,.02.02v.49c0,.14-.04.19-.17.19h-.2c-.13,0-.17-.05-.17-.19v-.14c0-.14.04-.19.17-.19h.27ZM24.73,4.74v-.18h-.26c-.06,0-.08.02-.08.1v.08c0,.08.02.1.08.1h.18c.06,0,.08-.02.08-.1Z"/>
        <path class="cls-30" d="M25.01,4.25s.02,0,.02.02v.09s0,.02-.02.02h-.07s-.02,0-.02-.02v-.09s0-.02.02-.02h.07ZM25.01,4.44s.02,0,.02.02v.47s0,.02-.02.02h-.07s-.02,0-.02-.02v-.47s0-.02.02-.02h.07Z"/>
        <path class="cls-44" d="M25.5,4.44c.13,0,.17.05.17.19v.3s0,.02-.02.02h-.07s-.02,0-.02-.02v-.27c0-.08-.01-.1-.07-.1h-.19c-.06,0-.08.02-.08.1v.27s0,.02-.02.02h-.07s-.02,0-.02-.02v-.3c0-.14.04-.19.17-.19h.21Z"/>
        <path class="cls-34" d="M26.13,4.44c.13,0,.17.05.17.19v.34c0,.14-.05.19-.17.19h-.34s-.01,0-.01-.02v-.08s0-.02.01-.02h.33c.06,0,.08-.02.08-.1h0s-.27-.01-.27-.01c-.12,0-.17-.06-.17-.2v-.1c0-.14.05-.19.17-.19h.2ZM25.94,4.82h.26v-.18c0-.07-.02-.09-.08-.09h-.18c-.06,0-.08.02-.08.08v.09c0,.07.02.09.08.09Z"/>
      </g>
      <g>
        <path class="cls-29" d="M1.17,3.13h.13v-.96h-.13v-.06s0,0,0-.02c0,0,0,0,0,0v-.16h-.05v.24h-.13v.95h.13v.23s0,.03,0,.05h.05v-.28Z"/>
        <path class="cls-37" d="M.69,3.69h.13v-.96h-.13v-.06s0,0,0-.02c0,0,0,0,0,0v-.16h-.05v.24h-.13v.95h.13v.23s0,.03,0,.05h.05v-.28Z"/>
        <path class="cls-23" d="M.21,4.11h.13v-.96h-.13v-.06s0,0,0-.02c0,0,0,0,0,0v-.16h-.05v.24H.02v.95h.13v.23s0,.03,0,.05h.05v-.28Z"/>
        <g>
          <path class="cls-42" d="M2.23,2.1c-.21.17-.41.33-.62.5h-.01C1.95,1.73,2.27.86,2.64,0c0,0,0,0,.01,0,.34.86.69,1.73,1.03,2.59,0,0-.01,0-.02.01-.2-.16-.41-.33-.62-.5,0,.05,0,.08,0,.12,0,.21,0,.42-.01.62-.02.28-.06.56-.12.83-.06.25-.15.48-.29.7-.07.11-.18.19-.31.26,0-.04-.01-.07-.01-.11-.01-.36-.02-.73-.03-1.09-.01-.43-.02-.86-.04-1.29,0,0,0-.02,0-.04Z"/>
          <path class="cls-24" d="M2.12,3.01c0,.64.02,1.29.01,1.94-.12-.05-.23-.09-.34-.13-.01,0-.02-.02-.02-.03,0-.01,0-.03,0-.04,0-.35,0-.69-.01-1.04,0-.04.01-.07.04-.1.1-.1.17-.23.22-.36.03-.07.05-.14.07-.21,0-.01,0-.02.01-.03h.02Z"/>
          <path class="cls-7" d="M1.58,3.81v.9c-.11-.08-.2-.16-.31-.22-.05-.03-.05-.07-.05-.12,0-.11,0-.22,0-.33,0-.04,0-.06.06-.08.1-.04.19-.09.28-.14,0,0,.01,0,.02,0Z"/>
        </g>
        <g>
          <path class="cls-14" d="M4.91,3.8s-.03.06-.04.09c-.1.22-.23.42-.39.6-.37.41-.82.67-1.36.78-.42.08-.84.06-1.25-.09-.31-.11-.59-.26-.84-.49-.11-.1-.2-.21-.3-.31h-.33c.07.09.13.18.2.26.14.16.29.31.47.43.13.08.26.17.39.24.16.08.33.15.51.19.14.03.29.07.43.08.2.03.41.02.61-.01.2-.03.4-.07.59-.14.27-.1.52-.24.74-.42.21-.18.41-.37.56-.61.12-.19.23-.39.3-.6,0,0,0,0,0,0h-.3Z"/>
          <path class="cls-11" d="M2.12.42c-.63.13-1.15.44-1.55.95-.32.4-.53.99-.57,1.33h.24s.02-.04.02-.07c.04-.2.09-.39.17-.57.18-.4.44-.72.79-.98.25-.19.53-.32.83-.4.02,0,.04-.01.06-.02v-.24Z"/>
          <path class="cls-3" d="M5.21,2.31c-.07-.25-.18-.48-.31-.7-.17-.28-.39-.52-.66-.71-.31-.23-.65-.39-1.04-.47-.01,0-.02,0-.04,0v.24s.02.01.03.02c.13.04.26.08.38.13.22.09.42.23.61.38.16.13.3.28.42.45.15.21.25.43.33.67,0,.02,0,.03.01.05h.26s0-.03,0-.05Z"/>
          <path class="cls-28" d="M5.6,2.5c-.12-.04-.26,0-.3.11-.02.05-.06.05-.1.05-.27,0-.54,0-.81,0-.02,0-.04,0-.06.02-.06.05-.11.1-.17.16-.12.12-.24.23-.37.35-.02.01-.04.03-.06.03-.08,0-.16,0-.23,0h0c-.07,0-.14,0-.22,0v.11s.03,0,.05,0c.15,0,.31,0,.46,0,.01,0,.03-.01.04-.02.1-.1.2-.2.31-.3.07-.07.14-.13.21-.19.02-.02.05-.03.08-.03.27,0,.54,0,.81,0,.03,0,.04,0,.05.03.04.1.15.16.27.14.1-.02.19-.12.2-.21,0-.11-.06-.21-.16-.24Z"/>
          <path class="cls-17" d="M5.32,3.19c-.09-.13-.33-.16-.42.03-.02.03-.04.04-.07.04-.2,0-.39,0-.59,0-.06,0-.11.02-.15.06-.06.06-.13.13-.2.19-.01.01-.03.03-.05.03-.07,0-.14,0-.21,0-.14,0-.28,0-.41,0v.1c.08,0,.15,0,.23,0,.12,0,.23.02.35.02.05,0,.12,0,.16-.03.08-.06.15-.14.22-.22.02-.03.05-.04.09-.04.1,0,.19,0,.29,0,0,0,0,0,0,0,.1,0,.2,0,.31,0,.03,0,.05.01.06.04.06.12.18.17.31.12.14-.05.19-.23.11-.35Z"/>
          <path class="cls-43" d="M4.23,3.69c-.09-.02-.21.04-.25.13-.02.03-.04.04-.07.04-.25,0-.51,0-.76,0,0,0-.01,0-.02,0v.11c.12,0,.25,0,.37,0,0,0,0,0,0,0,.12,0,.25,0,.37,0,.05,0,.08,0,.11.06.05.1.17.14.27.12.09-.02.17-.12.17-.22,0-.09-.07-.22-.2-.24Z"/>
          <path class="cls-38" d="M1.99.86c-.33.1-.62.28-.88.52-.24.22-.41.48-.53.78h.13s.02-.03.03-.06c.1-.21.23-.4.39-.56.24-.25.51-.44.84-.55,0,0,0,0,.01,0v-.13Z"/>
          <path class="cls-25" d="M4.61,2.2s0,0,.01,0h.11c-.11-.32-.3-.6-.56-.83-.25-.24-.54-.41-.87-.52v.14s0,0,0,0c.12.06.25.11.37.17.29.17.53.39.72.67.07.1.12.21.18.31,0,.02.01.04.02.05Z"/>
          <path class="cls-20" d="M4.27,4.39c-.06.06-.12.12-.19.18-.25.22-.55.37-.87.46-.12.03-.25.05-.37.06-.19.03-.37.02-.56-.01-.19-.03-.38-.08-.56-.17-.17-.08-.33-.17-.47-.28-.05-.04-.09-.07-.14-.11-.07-.06-.13-.13-.19-.2h-.04c.12.16.26.28.42.4.36.26.76.42,1.2.45.54.04,1.03-.11,1.47-.43.14-.1.26-.21.38-.34h-.09Z"/>
        </g>
      </g>
      <g>
        <path class="cls-16" d="M8.71,1.86s.07.02.07.07v.3s-.02.07-.07.07h-.96v1.63s-.02.07-.06.07h-.33s-.07-.02-.07-.07v-1.63h-.96s-.07-.02-.07-.07v-.3s.02-.07.07-.07h2.38Z"/>
        <path class="cls-36" d="M10.55,2.32s.05.02.05.05v.27s-.02.05-.05.05h-.81c-.26,0-.33.07-.33.32v.9s-.02.07-.07.07h-.3s-.07-.02-.07-.07v-.99c0-.45.19-.61.72-.61h.85Z"/>
        <path class="cls-12" d="M12.2,2.32c.54,0,.72.17.72.61v.81c0,.19-.05.24-.23.24h-1.45c-.35,0-.47-.12-.47-.43v-.15c0-.28.14-.42.47-.42h1.24v-.03c0-.19-.07-.26-.33-.26h-1.27s-.05-.02-.05-.05v-.27s.02-.05.05-.05h1.31ZM12.49,3.52v-.22h-1.11c-.13,0-.17.04-.17.13v.06c0,.1.04.13.17.13h1.02c.07,0,.09-.03.09-.1Z"/>
        <path class="cls-22" d="M15.09,2.32v-.54s.02-.07.07-.07h.3s.07.02.07.07v1.6c0,.45-.19.61-.72.61h-.85c-.54,0-.72-.16-.72-.61v-.44c0-.45.19-.61.72-.61h1.14ZM15.09,3.29v-.59h-1.1c-.26,0-.33.06-.33.32v.27c0,.26.07.32.33.32h.77c.26,0,.33-.06.33-.32Z"/>
        <path class="cls-13" d="M17.45,2.32c.41,0,.53.12.53.5v.31c0,.12-.05.17-.17.17h-1.54v.05c0,.19.07.26.33.26h1.27s.05.02.05.05v.27s-.02.05-.05.05h-1.31c-.54,0-.72-.16-.72-.61v-.44c0-.45.19-.61.72-.61h.89ZM17.49,2.99s.05-.02.05-.05v-.11c0-.12-.04-.15-.19-.15h-.76c-.27,0-.33.05-.33.25v.06h1.23Z"/>
        <path class="cls-10" d="M20.03,1.86c.47,0,.65.22.65.62v.23c0,.41-.19.64-.65.64h-1.26v.57s-.02.07-.07.07h-.33s-.07-.02-.07-.07v-1.97c0-.06.03-.09.09-.09h1.63ZM19.94,2.92c.21,0,.28-.08.28-.26v-.12c0-.18-.08-.26-.28-.26h-1.13s-.04.01-.04.04v.61h1.17Z"/>
        <path class="cls-39" d="M21.35,1.7s.07.02.07.07v.29s-.02.07-.07.07h-.3s-.07-.02-.07-.07v-.29s.02-.07.07-.07h.3ZM21.35,2.32s.07.02.07.07v1.54s-.02.07-.07.07h-.3s-.07-.02-.07-.07v-1.54s.02-.07.07-.07h.3Z"/>
        <path class="cls-4" d="M22.17,1.7s.07.02.07.07v2.15s-.02.07-.07.07h-.3s-.07-.02-.07-.07V1.77s.02-.07.07-.07h.3Z"/>
        <path class="cls-6" d="M24.18,2.32c.53,0,.72.16.72.61v.44c0,.45-.19.61-.72.61h-.86c-.53,0-.72-.16-.72-.61v-.44c0-.45.19-.61.72-.61h.86ZM23.03,3.3c0,.26.07.32.33.32h.78c.27,0,.33-.06.33-.32v-.29c0-.25-.07-.32-.33-.32h-.78c-.26,0-.33.06-.33.32v.29Z"/>
        <path class="cls-18" d="M25.42,2.32v-.4s.02-.07.07-.07h.3s.07.02.07.07v.4h.54s.05.02.05.05v.26s-.02.05-.05.05h-.54v.69c0,.17.06.23.26.23h.3s.05.02.05.05v.26s-.02.05-.05.05h-.37c-.47,0-.62-.16-.62-.61v-.69h-.29s-.05-.02-.05-.05v-.26s.02-.05.05-.05h.29Z"/>
      </g>
    </g>
  </g>
</svg>