<?xml version="1.0" encoding="UTF-8"?>
<svg id="Layer_2" data-name="Layer 2" xmlns="http://www.w3.org/2000/svg" xmlns:xlink="http://www.w3.org/1999/xlink" viewBox="0 0 147.04 31.1">
  <defs>
    <style>
      .cls-1 {
        fill: url(#linear-gradient-15);
      }

      .cls-2 {
        fill: url(#linear-gradient-13);
      }

      .cls-3 {
        fill: url(#linear-gradient-28);
      }

      .cls-4 {
        fill: url(#linear-gradient-42);
      }

      .cls-5 {
        fill: url(#linear-gradient-2);
      }

      .cls-6 {
        fill: url(#linear-gradient-43);
      }

      .cls-7 {
        fill: url(#linear-gradient-25);
      }

      .cls-8 {
        fill: url(#linear-gradient-10);
      }

      .cls-9 {
        fill: url(#linear-gradient-12);
      }

      .cls-10 {
        fill: url(#linear-gradient-40);
      }

      .cls-11 {
        fill: url(#linear-gradient-27);
      }

      .cls-12 {
        fill: url(#linear-gradient-37);
      }

      .cls-13 {
        fill: url(#linear-gradient-39);
      }

      .cls-14 {
        fill: url(#linear-gradient-26);
      }

      .cls-15 {
        fill: url(#linear-gradient-4);
      }

      .cls-16 {
        fill: url(#linear-gradient-35);
      }

      .cls-17 {
        fill: url(#linear-gradient-30);
      }

      .cls-18 {
        fill: url(#linear-gradient-44);
      }

      .cls-19 {
        fill: url(#linear-gradient-3);
      }

      .cls-20 {
        fill: url(#linear-gradient-34);
      }

      .cls-21 {
        fill: url(#linear-gradient-5);
      }

      .cls-22 {
        fill: url(#linear-gradient-38);
      }

      .cls-23 {
        fill: url(#linear-gradient-22);
      }

      .cls-24 {
        fill: url(#linear-gradient-24);
      }

      .cls-25 {
        fill: url(#linear-gradient-33);
      }

      .cls-26 {
        fill: url(#linear-gradient-8);
      }

      .cls-27 {
        fill: url(#linear-gradient-14);
      }

      .cls-28 {
        fill: url(#linear-gradient-29);
      }

      .cls-29 {
        fill: url(#linear-gradient-20);
      }

      .cls-30 {
        fill: url(#linear-gradient-17);
      }

      .cls-31 {
        fill: url(#linear-gradient-7);
      }

      .cls-32 {
        fill: url(#linear-gradient-9);
      }

      .cls-33 {
        fill: url(#linear-gradient-11);
      }

      .cls-34 {
        fill: url(#linear-gradient-19);
      }

      .cls-35 {
        fill: url(#linear-gradient-6);
      }

      .cls-36 {
        fill: url(#linear-gradient-36);
      }

      .cls-37 {
        fill: url(#linear-gradient-21);
      }

      .cls-38 {
        fill: url(#linear-gradient-32);
      }

      .cls-39 {
        fill: url(#linear-gradient-41);
      }

      .cls-40 {
        fill: url(#linear-gradient-16);
      }

      .cls-41 {
        fill: url(#linear-gradient);
      }

      .cls-42 {
        fill: url(#linear-gradient-23);
      }

      .cls-43 {
        fill: url(#linear-gradient-31);
      }

      .cls-44 {
        fill: url(#linear-gradient-18);
      }
    </style>
    <linearGradient id="linear-gradient" x1="77.26" y1="26.2" x2="133.07" y2="22.24" gradientUnits="userSpaceOnUse">
      <stop offset=".39" stop-color="#fdf9f6"/>
      <stop offset=".95" stop-color="#feb687"/>
    </linearGradient>
    <linearGradient id="linear-gradient-2" x1="77.27" y1="26.37" x2="133.08" y2="22.41" xlink:href="#linear-gradient"/>
    <linearGradient id="linear-gradient-3" x1="77.33" y1="27.15" x2="133.14" y2="23.19" xlink:href="#linear-gradient"/>
    <linearGradient id="linear-gradient-4" x1="77.32" y1="27.09" x2="133.14" y2="23.12" xlink:href="#linear-gradient"/>
    <linearGradient id="linear-gradient-5" x1="77.37" y1="27.75" x2="133.18" y2="23.79" xlink:href="#linear-gradient"/>
    <linearGradient id="linear-gradient-6" x1="77.38" y1="27.96" x2="133.2" y2="23.99" xlink:href="#linear-gradient"/>
    <linearGradient id="linear-gradient-7" x1="77.37" y1="27.75" x2="133.18" y2="23.79" xlink:href="#linear-gradient"/>
    <linearGradient id="linear-gradient-8" x1="77.39" y1="28.07" x2="133.21" y2="24.11" xlink:href="#linear-gradient"/>
    <linearGradient id="linear-gradient-9" x1="77.43" y1="28.61" x2="133.24" y2="24.65" xlink:href="#linear-gradient"/>
    <linearGradient id="linear-gradient-10" x1="77.44" y1="28.83" x2="133.26" y2="24.86" xlink:href="#linear-gradient"/>
    <linearGradient id="linear-gradient-11" x1="77.47" y1="29.16" x2="133.28" y2="25.2" xlink:href="#linear-gradient"/>
    <linearGradient id="linear-gradient-12" x1="77.44" y1="28.8" x2="133.26" y2="24.84" xlink:href="#linear-gradient"/>
    <linearGradient id="linear-gradient-13" x1="77.47" y1="29.21" x2="133.29" y2="25.25" xlink:href="#linear-gradient"/>
    <linearGradient id="linear-gradient-14" x1="77.52" y1="29.83" x2="133.33" y2="25.87" xlink:href="#linear-gradient"/>
    <linearGradient id="linear-gradient-15" x1="77.53" y1="30.05" x2="133.35" y2="26.09" xlink:href="#linear-gradient"/>
    <linearGradient id="linear-gradient-16" x1="77.52" y1="29.83" x2="133.33" y2="25.87" xlink:href="#linear-gradient"/>
    <linearGradient id="linear-gradient-17" x1="77.52" y1="29.93" x2="133.34" y2="25.97" xlink:href="#linear-gradient"/>
    <linearGradient id="linear-gradient-18" x1="77.57" y1="30.64" x2="133.39" y2="26.68" xlink:href="#linear-gradient"/>
    <linearGradient id="linear-gradient-19" x1="77.63" y1="31.44" x2="133.44" y2="27.47" xlink:href="#linear-gradient"/>
    <linearGradient id="linear-gradient-20" x1="-10.38" y1="34.8" x2="12.22" y2="7.77" xlink:href="#linear-gradient"/>
    <linearGradient id="linear-gradient-21" x1="-10.41" y1="34.78" x2="12.2" y2="7.75" xlink:href="#linear-gradient"/>
    <linearGradient id="linear-gradient-22" x1="-10.84" y1="34.42" x2="11.76" y2="7.38" xlink:href="#linear-gradient"/>
    <linearGradient id="linear-gradient-23" x1="-6.79" y1="37.8" x2="15.81" y2="10.77" xlink:href="#linear-gradient"/>
    <linearGradient id="linear-gradient-24" x1="-3.59" y1="40.49" x2="19.02" y2="13.45" xlink:href="#linear-gradient"/>
    <linearGradient id="linear-gradient-25" x1="-4.91" y1="39.38" x2="17.7" y2="12.35" xlink:href="#linear-gradient"/>
    <linearGradient id="linear-gradient-26" x1="-.69" y1="42.91" x2="21.91" y2="15.87" xlink:href="#linear-gradient"/>
    <linearGradient id="linear-gradient-27" x1="-14.22" y1="31.59" x2="8.39" y2="4.56" xlink:href="#linear-gradient"/>
    <linearGradient id="linear-gradient-28" x1="-3.91" y1="40.21" x2="18.69" y2="13.18" xlink:href="#linear-gradient"/>
    <linearGradient id="linear-gradient-29" x1="1.61" y1="44.83" x2="24.22" y2="17.8" xlink:href="#linear-gradient"/>
    <linearGradient id="linear-gradient-30" x1="2.11" y1="45.25" x2="24.72" y2="18.22" xlink:href="#linear-gradient"/>
    <linearGradient id="linear-gradient-31" x1="1.74" y1="44.94" x2="24.35" y2="17.91" xlink:href="#linear-gradient"/>
    <linearGradient id="linear-gradient-32" x1="-13.13" y1="32.51" x2="9.48" y2="5.47" xlink:href="#linear-gradient"/>
    <linearGradient id="linear-gradient-33" x1="-4.06" y1="40.09" x2="18.54" y2="13.06" xlink:href="#linear-gradient"/>
    <linearGradient id="linear-gradient-34" x1="-.9" y1="42.73" x2="21.7" y2="15.7" xlink:href="#linear-gradient"/>
    <linearGradient id="linear-gradient-35" x1="33.43" y1="18.07" x2="111.03" y2="-7.79" xlink:href="#linear-gradient"/>
    <linearGradient id="linear-gradient-36" x1="35.14" y1="23.21" x2="112.74" y2="-2.66" xlink:href="#linear-gradient"/>
    <linearGradient id="linear-gradient-37" x1="36.49" y1="27.25" x2="114.09" y2="1.38" xlink:href="#linear-gradient"/>
    <linearGradient id="linear-gradient-38" x1="37.79" y1="31.17" x2="115.39" y2="5.3" xlink:href="#linear-gradient"/>
    <linearGradient id="linear-gradient-39" x1="39.41" y1="36.03" x2="117.01" y2="10.16" xlink:href="#linear-gradient"/>
    <linearGradient id="linear-gradient-40" x1="39.84" y1="37.31" x2="117.44" y2="11.44" xlink:href="#linear-gradient"/>
    <linearGradient id="linear-gradient-41" x1="41.18" y1="41.33" x2="118.78" y2="15.46" xlink:href="#linear-gradient"/>
    <linearGradient id="linear-gradient-42" x1="41.64" y1="42.71" x2="119.24" y2="16.84" xlink:href="#linear-gradient"/>
    <linearGradient id="linear-gradient-43" x1="43.11" y1="47.12" x2="120.71" y2="21.26" xlink:href="#linear-gradient"/>
    <linearGradient id="linear-gradient-44" x1="43.94" y1="49.61" x2="121.54" y2="23.74" xlink:href="#linear-gradient"/>
  </defs>
  <g id="Layer_1-2" data-name="Layer 1">
    <g>
      <g>
        <path class="cls-41" d="M86.34,23.91c.06,0,.09.04.09.11v.51c0,.08-.03.11-.09.11h-1.27v2.77c0,.08-.02.11-.09.11h-.44c-.06,0-.09-.04-.09-.11v-2.77h-1.27c-.06,0-.09-.04-.09-.11v-.51c0-.08.03-.11.09-.11h3.16Z"/>
        <path class="cls-5" d="M87.27,23.65c.06,0,.09.04.09.11v.93h1.51c.72,0,.96.28.96,1.05v1.68c0,.08-.03.11-.09.11h-.4c-.06,0-.09-.04-.09-.11v-1.5c0-.46-.08-.57-.42-.57h-1.48v2.07c0,.08-.03.11-.09.11h-.4c-.06,0-.09-.04-.09-.11v-3.65c0-.08.03-.11.09-.11h.4Z"/>
        <path class="cls-19" d="M92.39,24.69c.54,0,.7.21.7.85v.53c0,.21-.07.29-.23.29h-2.04v.09c0,.33.1.43.44.43h1.69s.07.03.07.09v.46c0,.06-.02.09-.07.09h-1.74c-.72,0-.96-.28-.96-1.05v-.75c0-.76.25-1.05.96-1.05h1.18ZM92.45,25.83s.07-.03.07-.09v-.18c0-.2-.05-.25-.25-.25h-1.01c-.36,0-.44.09-.44.42v.1h1.63Z"/>
        <path class="cls-15" d="M95.61,23.91c.29,0,.34.08.47.31l1.49,2.53s.03.04.05.04h.04s.03-.02.03-.05v-2.7c0-.08.03-.11.09-.11h.43c.06,0,.09.04.09.11v2.97c0,.41-.11.54-.36.54h-.36c-.29,0-.34-.08-.46-.31l-1.49-2.53s-.03-.04-.05-.04h-.04s-.03.02-.03.05v2.7c0,.08-.03.11-.09.11h-.43c-.06,0-.09-.04-.09-.11v-2.97c0-.41.1-.54.36-.54h.36Z"/>
        <path class="cls-21" d="M100.88,24.69c.54,0,.7.21.7.85v.53c0,.21-.07.29-.23.29h-2.04v.09c0,.33.1.43.44.43h1.69s.07.03.07.09v.46c0,.06-.02.09-.07.09h-1.74c-.72,0-.96-.28-.96-1.05v-.75c0-.76.25-1.05.96-1.05h1.18ZM100.94,25.83s.07-.03.07-.09v-.18c0-.2-.05-.25-.25-.25h-1.01c-.36,0-.44.09-.44.42v.1h1.63Z"/>
        <path class="cls-35" d="M102.53,24.69c.06,0,.09.02.12.06l.76.91.75-.91s.06-.06.12-.06h.51c.07,0,.09.08.04.13l-1.07,1.26,1.1,1.31c.04.06.03.13-.04.13h-.55c-.05,0-.09-.02-.12-.06l-.83-.99-.82.99s-.06.06-.11.06h-.51c-.07,0-.09-.08-.04-.13l1.14-1.33-1.04-1.24c-.04-.05-.02-.13.04-.13h.55Z"/>
        <path class="cls-31" d="M105.47,24.69v-.68c0-.08.03-.12.09-.12h.4c.06,0,.09.04.09.12v.68h.71s.07.03.07.09v.45c0,.06-.02.09-.07.09h-.71v1.18c0,.29.08.39.34.39h.4s.07.03.07.09v.45c0,.06-.02.09-.07.09h-.49c-.63,0-.82-.27-.82-1.03v-1.18h-.38s-.07-.03-.07-.09v-.45c0-.06.02-.09.07-.09h.38Z"/>
        <path class="cls-26" d="M111.43,23.91c.06,0,.09.04.09.11v.5c0,.07-.03.11-.09.11h-1.77c-.42,0-.53.15-.53.69v.03h2.28c.06,0,.09.04.09.11v.46c0,.08-.03.11-.09.11h-2.28v.06c0,.54.11.69.53.69h1.77c.06,0,.09.04.09.11v.5c0,.08-.03.11-.09.11h-1.78c-.82,0-1.13-.38-1.13-1.37v-.89c0-.99.31-1.37,1.13-1.37h1.78Z"/>
        <path class="cls-32" d="M114.05,24.69s.07.03.07.09v.46c0,.06-.02.09-.07.09h-1.08c-.35,0-.44.11-.44.55v1.54c0,.08-.03.11-.09.11h-.4c-.06,0-.09-.04-.09-.11v-1.68c0-.76.25-1.05.96-1.05h1.13Z"/>
        <path class="cls-8" d="M116.24,24.69c.72,0,.96.28.96,1.05v1.38c0,.33-.06.41-.3.41h-1.92c-.46,0-.62-.2-.62-.74v-.25c0-.48.19-.71.62-.71h1.65v-.05c0-.33-.1-.45-.44-.45h-1.69s-.07-.03-.07-.09v-.46c0-.06.02-.09.07-.09h1.74ZM116.63,26.74v-.38h-1.48c-.17,0-.22.06-.22.22v.11c0,.18.05.22.22.22h1.35c.09,0,.13-.05.13-.17Z"/>
        <path class="cls-33" d="M121.06,24.69c.71,0,.96.27.96,1.05v.75c0,.77-.25,1.05-.96,1.05h-1.14c-.71,0-.96-.27-.96-1.05v-.75c0-.77.25-1.05.96-1.05h1.14ZM119.53,26.35c0,.43.09.54.44.54h1.03c.36,0,.44-.11.44-.54v-.49c0-.43-.09-.54-.44-.54h-1.03c-.35,0-.44.11-.44.54v.49Z"/>
        <path class="cls-9" d="M122.77,24.69v-.1c0-.77.19-1.04.82-1.04h.49s.07.03.07.09v.45c0,.06-.02.09-.07.09h-.4c-.26,0-.34.1-.34.4v.1h.71s.07.03.07.09v.45c0,.06-.02.09-.07.09h-.71v2.09c0,.08-.03.11-.09.11h-.4c-.06,0-.09-.04-.09-.11v-2.09h-.39s-.07-.03-.07-.09v-.45c0-.06.02-.09.07-.09h.39Z"/>
        <path class="cls-2" d="M128.92,23.91c.06,0,.09.04.09.11v.51c0,.08-.03.11-.09.11h-1.27v2.77c0,.08-.02.11-.09.11h-.44c-.06,0-.09-.04-.09-.11v-2.77h-1.27c-.06,0-.09-.04-.09-.11v-.51c0-.08.03-.11.09-.11h3.16Z"/>
        <path class="cls-27" d="M131.36,24.69s.07.03.07.09v.46c0,.06-.02.09-.07.09h-1.08c-.35,0-.44.11-.44.55v1.54c0,.08-.03.11-.09.11h-.4c-.06,0-.09-.04-.09-.11v-1.68c0-.76.25-1.05.96-1.05h1.13Z"/>
        <path class="cls-1" d="M133.55,24.69c.72,0,.96.28.96,1.05v1.38c0,.33-.06.41-.3.41h-1.92c-.46,0-.62-.2-.62-.74v-.25c0-.48.19-.71.62-.71h1.65v-.05c0-.33-.1-.45-.44-.45h-1.69s-.07-.03-.07-.09v-.46c0-.06.02-.09.07-.09h1.74ZM133.94,26.74v-.38h-1.48c-.17,0-.22.06-.22.22v.11c0,.18.05.22.22.22h1.35c.09,0,.13-.05.13-.17Z"/>
        <path class="cls-40" d="M137.39,24.69v-.93c0-.08.03-.11.09-.11h.4c.06,0,.09.04.09.11v2.72c0,.77-.25,1.05-.96,1.05h-1.13c-.71,0-.96-.28-.96-1.05v-.75c0-.76.25-1.05.96-1.05h1.52ZM137.39,26.34v-1.01h-1.46c-.35,0-.44.11-.44.55v.46c0,.44.09.55.44.55h1.02c.35,0,.44-.11.44-.55Z"/>
        <path class="cls-30" d="M138.95,23.64c.06,0,.09.04.09.11v.49c0,.08-.03.12-.09.12h-.4c-.06,0-.09-.04-.09-.12v-.49c0-.08.03-.11.09-.11h.4ZM138.95,24.69c.06,0,.09.04.09.11v2.61c0,.08-.03.11-.09.11h-.4c-.06,0-.09-.04-.09-.11v-2.61c0-.07.03-.11.09-.11h.4Z"/>
        <path class="cls-44" d="M141.66,24.69c.72,0,.96.28.96,1.05v1.68c0,.08-.03.11-.09.11h-.4c-.06,0-.09-.04-.09-.11v-1.5c0-.46-.08-.57-.42-.57h-1.08c-.35,0-.44.13-.44.57v1.5c0,.08-.03.11-.09.11h-.4c-.06,0-.09-.04-.09-.11v-1.68c0-.76.25-1.05.96-1.05h1.16Z"/>
        <path class="cls-34" d="M145.18,24.69c.71,0,.96.28.96,1.05v1.88c0,.78-.25,1.06-.96,1.06h-1.9s-.07-.03-.07-.09v-.46c0-.06.02-.09.07-.09h1.85c.35,0,.44-.11.44-.56v-.08h-1.52c-.69,0-.96-.32-.96-1.11v-.54c0-.78.25-1.06.96-1.06h1.13ZM144.1,26.77h1.46v-.97c0-.38-.1-.48-.44-.48h-1.02c-.34,0-.44.1-.44.46v.49c0,.38.11.5.44.5Z"/>
      </g>
      <g>
        <path class="cls-29" d="M6.48,17.37h.71v-5.32h-.73v-.31s0-.05,0-.08c0-.02,0-.04,0-.06v-.88h-.28v1.34h-.74v5.29h.74v1.28c0,.09,0,.19,0,.28h.29v-1.54Z"/>
        <path class="cls-37" d="M3.81,20.52h.71v-5.32h-.73v-.31s0-.05,0-.08c0-.02,0-.04,0-.06v-.88h-.28v1.34h-.74v5.29h.74v1.28c0,.09,0,.19,0,.28h.29v-1.54Z"/>
        <path class="cls-23" d="M1.15,22.81h.71v-5.32h-.73v-.31s0-.05,0-.08c0-.02,0-.04,0-.06v-.88h-.28v1.34H.11v5.29h.74v1.28c0,.09,0,.19,0,.28h.29v-1.54Z"/>
        <g>
          <path class="cls-42" d="M12.42,11.69c-1.17.94-2.3,1.85-3.43,2.76l-.08-.05C10.81,9.59,12.63,4.75,14.67,0c.03,0,.05,0,.08,0,1.91,4.8,3.82,9.6,5.73,14.4-.03.02-.06.04-.09.07-1.13-.91-2.27-1.82-3.45-2.77,0,.27,0,.47,0,.67-.02,1.16,0,2.32-.07,3.47-.11,1.55-.32,3.1-.68,4.62-.32,1.37-.82,2.68-1.6,3.87-.41.63-1.01,1.06-1.72,1.44-.03-.22-.08-.41-.08-.6-.06-2.03-.11-4.05-.16-6.08-.06-2.4-.13-4.79-.2-7.19,0-.05-.01-.09-.02-.21Z"/>
          <path class="cls-24" d="M11.78,16.75c.03,3.57.09,7.15.07,10.78-.67-.26-1.28-.5-1.89-.75-.06-.02-.1-.12-.13-.19-.02-.07,0-.15,0-.22-.03-1.92-.05-3.83-.08-5.75,0-.23.06-.39.23-.56.56-.56.92-1.25,1.23-1.97.16-.38.28-.79.42-1.18.02-.06.05-.11.07-.17h.09Z"/>
          <path class="cls-7" d="M8.77,21.19v5.02c-.6-.45-1.13-.88-1.7-1.24-.29-.18-.31-.39-.3-.66,0-.61,0-1.23-.01-1.84,0-.24.05-.35.31-.45.54-.21,1.05-.51,1.58-.77.03-.01.06-.02.12-.05Z"/>
        </g>
        <g>
          <path class="cls-14" d="M27.27,21.11c-.08.16-.16.31-.23.47-.56,1.22-1.29,2.34-2.18,3.35-2.03,2.29-4.54,3.75-7.54,4.35-2.36.47-4.68.33-6.96-.48-1.72-.61-3.29-1.47-4.64-2.7-.59-.54-1.13-1.14-1.68-1.73h-1.84c.37.48.73.99,1.13,1.45.77.89,1.6,1.72,2.59,2.36.71.46,1.43.92,2.18,1.31.89.46,1.83.85,2.81,1.07.8.18,1.6.36,2.4.47,1.13.15,2.28.1,3.41-.06,1.12-.15,2.21-.39,3.27-.79,1.49-.56,2.88-1.32,4.11-2.33,1.19-.98,2.26-2.07,3.11-3.37.69-1.06,1.26-2.17,1.69-3.35,0,0,0,0,0,0h-1.65Z"/>
          <path class="cls-11" d="M11.78,2.36c-3.51.73-6.38,2.47-8.63,5.28C1.38,9.85.23,13.15,0,15.04h1.35c.07-.11.11-.23.13-.37.2-1.1.5-2.17.96-3.19.99-2.19,2.43-4.01,4.37-5.44,1.4-1.03,2.94-1.78,4.63-2.2.13-.03.24-.07.34-.13v-1.34Z"/>
          <path class="cls-3" d="M28.93,12.82c-.41-1.38-.98-2.69-1.75-3.91-.97-1.55-2.18-2.87-3.66-3.94-1.74-1.25-3.64-2.18-5.75-2.61-.07-.01-.13-.03-.2-.04v1.36c.05.03.12.06.19.09.71.23,1.42.44,2.11.72,1.24.51,2.35,1.26,3.39,2.11.89.73,1.66,1.58,2.33,2.52.81,1.14,1.4,2.39,1.86,3.7.03.09.05.19.07.28h1.47c0-.08-.02-.17-.05-.27Z"/>
          <path class="cls-28" d="M31.14,13.89c-.66-.2-1.44.04-1.69.6-.13.3-.31.3-.55.3-1.5,0-3,0-4.51,0-.1,0-.23.03-.31.1-.32.28-.62.58-.93.87-.68.64-1.35,1.29-2.04,1.93-.09.08-.22.14-.34.14-.43.02-.87,0-1.3,0h0c-.4,0-.8,0-1.21,0v.59c.09,0,.19,0,.28,0,.85.01,1.71.03,2.56.03.08,0,.18-.06.25-.12.57-.55,1.14-1.11,1.71-1.66.38-.36.76-.73,1.15-1.07.11-.1.28-.18.43-.18,1.5-.02,3-.01,4.51-.02.15,0,.21.05.26.19.22.58.83.89,1.49.78.54-.09,1.07-.66,1.1-1.18.04-.6-.33-1.19-.86-1.35Z"/>
          <path class="cls-17" d="M29.58,17.72c-.48-.74-1.82-.9-2.34.18-.09.19-.21.24-.4.24-1.09-.01-2.18-.01-3.28-.03-.33,0-.6.09-.84.33-.36.36-.74.7-1.11,1.04-.08.07-.19.14-.3.15-.39.02-.79.02-1.18.02-.77,0-1.53,0-2.3.02v.57c.42,0,.84,0,1.26.02.65.03,1.29.1,1.94.1.3,0,.67-.02.89-.19.45-.35.82-.8,1.21-1.21.13-.14.28-.21.47-.21.53,0,1.07,0,1.6,0,0,0,0,0,0,.01.57,0,1.13,0,1.7,0,.16,0,.25.06.33.2.35.68,1,.93,1.72.67.76-.28,1.05-1.26.62-1.93Z"/>
          <path class="cls-43" d="M23.52,20.5c-.49-.1-1.14.21-1.39.73-.09.19-.2.23-.39.23-1.41,0-2.82.03-4.23.04-.04,0-.07,0-.1,0v.6c.69,0,1.39,0,2.08,0,0,0,0,0,0,0,.69,0,1.38.01,2.07,0,.29,0,.47.05.62.34.29.55.93.79,1.51.64.51-.13.92-.67.96-1.21.04-.49-.37-1.2-1.13-1.36Z"/>
          <path class="cls-38" d="M11.04,4.79c-1.85.58-3.46,1.57-4.88,2.9-1.31,1.23-2.28,2.69-2.95,4.34h.7c.07-.09.14-.19.19-.31.54-1.17,1.29-2.2,2.19-3.13,1.34-1.37,2.86-2.44,4.68-3.06.02,0,.04-.02.06-.03v-.7Z"/>
          <path class="cls-25" d="M25.6,12.24s.05.03.07.05h.61c-.64-1.8-1.69-3.33-3.09-4.64-1.4-1.31-3-2.28-4.81-2.87v.76s.03.01.04.02c.69.32,1.4.59,2.06.97,1.61.92,2.92,2.19,3.98,3.71.38.54.68,1.15,1.01,1.73.05.09.06.23.13.28Z"/>
          <path class="cls-20" d="M23.75,24.4c-.36.32-.69.66-1.06.98-1.42,1.22-3.03,2.07-4.84,2.54-.67.17-1.37.26-2.06.36-1.03.14-2.07.09-3.09-.07-1.07-.17-2.1-.46-3.09-.94-.92-.45-1.81-.93-2.62-1.56-.26-.2-.52-.39-.75-.62-.37-.36-.71-.73-1.07-1.1h-.22c.64.87,1.45,1.57,2.32,2.21,2,1.46,4.23,2.31,6.69,2.47,3,.2,5.73-.62,8.17-2.37.77-.55,1.46-1.19,2.09-1.89h-.48Z"/>
        </g>
      </g>
      <g>
        <path class="cls-16" d="M48.39,10.32c.25,0,.39.12.39.37v1.66c0,.25-.14.37-.39.37h-5.32v9.06c0,.25-.1.37-.35.37h-1.84c-.24,0-.37-.12-.37-.37v-9.06h-5.32c-.24,0-.37-.12-.37-.37v-1.66c0-.25.14-.37.37-.37h13.22Z"/>
        <path class="cls-36" d="M58.6,12.87c.2,0,.3.1.3.3v1.49c0,.2-.1.3-.3.3h-4.5c-1.47,0-1.84.37-1.84,1.79v5.02c0,.25-.12.37-.37.37h-1.66c-.25,0-.37-.12-.37-.37v-5.49c0-2.48,1.03-3.41,4.01-3.41h4.73Z"/>
        <path class="cls-12" d="M67.78,12.87c2.99,0,4.02.93,4.02,3.41v4.51c0,1.08-.25,1.35-1.25,1.35h-8.05c-1.94,0-2.6-.66-2.6-2.4v-.81c0-1.57.78-2.33,2.6-2.33h6.9v-.17c0-1.08-.41-1.47-1.86-1.47h-7.05c-.2,0-.3-.1-.3-.3v-1.49c0-.2.1-.3.3-.3h7.28ZM69.4,19.58v-1.23h-6.19c-.73,0-.93.2-.93.71v.36c0,.57.2.73.93.73h5.66c.37,0,.52-.15.52-.56Z"/>
        <path class="cls-22" d="M83.84,12.87v-3.03c0-.25.14-.37.37-.37h1.66c.25,0,.37.12.37.37v8.89c0,2.5-1.03,3.41-4.02,3.41h-4.73c-2.97,0-4.01-.91-4.01-3.41v-2.45c0-2.48,1.03-3.41,4.01-3.41h6.36ZM83.84,18.26v-3.3h-6.12c-1.45,0-1.84.35-1.84,1.79v1.5c0,1.44.39,1.79,1.84,1.79h4.26c1.45,0,1.86-.36,1.86-1.79Z"/>
        <path class="cls-13" d="M96.94,12.87c2.26,0,2.92.68,2.92,2.77v1.74c0,.69-.29.95-.96.95h-8.54v.3c0,1.06.41,1.42,1.86,1.42h7.05c.2,0,.3.1.3.3v1.49c0,.2-.1.3-.3.3h-7.28c-2.99,0-4.02-.91-4.02-3.41v-2.45c0-2.48,1.03-3.41,4.02-3.41h4.95ZM97.19,16.59c.2,0,.29-.1.29-.29v-.59c0-.66-.2-.83-1.03-.83h-4.23c-1.5,0-1.86.3-1.86,1.37v.34h6.83Z"/>
        <path class="cls-10" d="M111.3,10.32c2.59,0,3.63,1.2,3.63,3.46v1.27c0,2.28-1.05,3.53-3.63,3.53h-7v3.19c0,.25-.12.37-.37.37h-1.83c-.25,0-.37-.12-.37-.37v-10.95c0-.34.17-.51.51-.51h9.06ZM110.78,16.25c1.15,0,1.57-.46,1.57-1.45v-.64c0-1.01-.42-1.47-1.57-1.47h-6.25c-.15,0-.22.07-.22.2v3.36h6.47Z"/>
        <path class="cls-39" d="M118.61,9.44c.25,0,.37.12.37.37v1.61c0,.25-.12.39-.37.39h-1.66c-.25,0-.37-.14-.37-.39v-1.61c0-.25.12-.37.37-.37h1.66ZM118.61,12.87c.24,0,.37.14.37.37v8.54c0,.25-.14.37-.37.37h-1.66c-.25,0-.37-.12-.37-.37v-8.54c0-.24.12-.37.37-.37h1.66Z"/>
        <path class="cls-4" d="M123.17,9.47c.24,0,.37.12.37.37v11.93c0,.25-.14.37-.37.37h-1.66c-.25,0-.37-.12-.37-.37v-11.93c0-.25.12-.37.37-.37h1.66Z"/>
        <path class="cls-6" d="M134.34,12.87c2.96,0,4.02.9,4.02,3.41v2.45c0,2.52-1.06,3.41-4.02,3.41h-4.78c-2.96,0-4.01-.9-4.01-3.41v-2.45c0-2.52,1.05-3.41,4.01-3.41h4.78ZM127.95,18.31c0,1.42.37,1.77,1.84,1.77h4.31c1.49,0,1.86-.35,1.86-1.77v-1.61c0-1.4-.37-1.76-1.86-1.76h-4.31c-1.47,0-1.84.35-1.84,1.76v1.61Z"/>
        <path class="cls-18" d="M141.24,12.87v-2.23c0-.25.14-.39.37-.39h1.67c.24,0,.37.14.37.39v2.23h2.97c.2,0,.3.1.3.3v1.47c0,.2-.1.3-.3.3h-2.97v3.84c0,.95.32,1.28,1.42,1.28h1.66c.2,0,.3.1.3.3v1.47c0,.2-.1.3-.3.3h-2.06c-2.62,0-3.43-.88-3.43-3.36v-3.84h-1.61c-.2,0-.3-.1-.3-.3v-1.47c0-.2.1-.3.3-.3h1.61Z"/>
      </g>
    </g>
  </g>
</svg>