<?xml version="1.0" encoding="utf-8"?>
<!-- Generator: Adobe Illustrator 26.0.1, SVG Export Plug-In . SVG Version: 6.00 Build 0)  -->
<svg version="1.1" id="Layer_1" xmlns="http://www.w3.org/2000/svg" xmlns:xlink="http://www.w3.org/1999/xlink" x="0px" y="0px"
	 viewBox="0 0 1080 505.29" style="enable-background:new 0 0 1080 505.29;" xml:space="preserve">
<style type="text/css">
	.st0{fill:#101012;}
	.st1{fill:url(#SVGID_1_);}
	.st2{fill:url(#SVGID_00000139252676028334280200000011734516479343433886_);}
	.st3{fill:url(#SVGID_00000075856264667744427870000018431989660791658411_);}
	.st4{fill:url(#SVGID_00000097491035253586277690000015785817246810469000_);}
	.st5{fill:url(#SVGID_00000054255301336448181020000014954973586730926989_);}
	.st6{fill:url(#SVGID_00000174583857427348892720000014319645948346979767_);}
	.st7{fill:url(#SVGID_00000038382956743698353570000008298300962004762015_);}
	.st8{fill:url(#SVGID_00000017514810068258895170000000407686953588732309_);}
	.st9{fill:url(#SVGID_00000047040862207927680990000016127260043044686762_);}
	.st10{fill:url(#SVGID_00000052093640299181430530000010991778569723457969_);}
	.st11{fill:url(#SVGID_00000098213012999214496240000016260451020513650081_);}
	.st12{fill:url(#SVGID_00000021083851165603377580000006014183929342159761_);}
	.st13{fill:url(#SVGID_00000147215702704709958440000016037871611331878843_);}
	.st14{fill:url(#SVGID_00000110450394016957347830000006229621855827963013_);}
	.st15{fill:url(#SVGID_00000097487778452437851610000011417669641162989217_);}
	.st16{fill:url(#SVGID_00000054957507963634006700000014333932517982344592_);}
	.st17{fill:url(#SVGID_00000129173813387448086170000006101919125594076324_);}
	.st18{fill:url(#SVGID_00000071539515566619420380000016715328487700413871_);}
	.st19{fill:url(#SVGID_00000135679589053973740520000008876189413642088639_);}
	.st20{fill:url(#SVGID_00000095306365000941859290000010239062926751894451_);}
	.st21{fill:url(#SVGID_00000098925664894510233380000016624188641096395185_);}
	.st22{fill:url(#SVGID_00000097488282849939640930000014883639232117510292_);}
	.st23{fill:url(#SVGID_00000039850521398643915750000004158273194957158846_);}
	.st24{fill:url(#SVGID_00000028300687217776477360000012062918561010090675_);}
	.st25{fill:url(#SVGID_00000072973749465339397850000010598799579184826295_);}
	.st26{fill:url(#SVGID_00000031888952223254055020000014625175604102006919_);}
	.st27{fill:url(#SVGID_00000154400668365151278310000009139441746757857215_);}
	.st28{fill:url(#SVGID_00000034776356363646043800000002154502818120471184_);}
	.st29{fill:url(#SVGID_00000133520831301508385770000002696474119521534628_);}
	.st30{fill:url(#SVGID_00000115491278414051919910000016779661894068404873_);}
	.st31{fill:url(#SVGID_00000136382780840149804510000010072728583491178918_);}
	.st32{fill:url(#SVGID_00000119112982015444562630000006794594961519599506_);}
	.st33{fill:url(#SVGID_00000015330550446837708740000006901594785956476320_);}
	.st34{fill:url(#SVGID_00000165215583720134301260000007618433830692601258_);}
	.st35{fill:url(#SVGID_00000026860495691914077410000006784866777157187750_);}
	.st36{fill:url(#SVGID_00000023281555549547371020000003575101242551122580_);}
	.st37{fill:url(#SVGID_00000048471785543313155270000000119384971321790391_);}
	.st38{fill:url(#SVGID_00000182524300752886346890000003291455672798709933_);}
	.st39{fill:url(#SVGID_00000011023858042933972630000008226244275606975914_);}
	.st40{fill:url(#SVGID_00000129906904426196331700000002515293922921763512_);}
	.st41{fill:url(#SVGID_00000056399674567635496940000018395661629620255635_);}
	.st42{fill:url(#SVGID_00000116232974654394625950000011318404856027516069_);}
	.st43{fill:url(#SVGID_00000183211889222687400550000014545556465192594107_);}
	.st44{fill:url(#SVGID_00000049198518424500922860000016286728792922475427_);}
</style>
<g>
	<g>
		<linearGradient id="SVGID_1_" gradientUnits="userSpaceOnUse" x1="566.6136" y1="328.4274" x2="963.7549" y2="300.2378">
			<stop  offset="0.3855" style="stop-color:#FDF9F6"/>
			<stop  offset="0.9515" style="stop-color:#FEB687"/>
		</linearGradient>
		<path class="st1" d="M631.23,312.09c0.43,0,0.66,0.26,0.66,0.81v3.61c0,0.55-0.23,0.81-0.66,0.81h-9.06v19.74
			c0,0.55-0.17,0.81-0.61,0.81h-3.13c-0.4,0-0.63-0.26-0.63-0.81v-19.74h-9.06c-0.4,0-0.63-0.26-0.63-0.81v-3.61
			c0-0.55,0.23-0.81,0.63-0.81H631.23z"/>
		
			<linearGradient id="SVGID_00000111904672640082044930000004471283726960797595_" gradientUnits="userSpaceOnUse" x1="566.6993" y1="329.6351" x2="963.8406" y2="301.4455">
			<stop  offset="0.3855" style="stop-color:#FDF9F6"/>
			<stop  offset="0.9515" style="stop-color:#FEB687"/>
		</linearGradient>
		<path style="fill:url(#SVGID_00000111904672640082044930000004471283726960797595_);" d="M637.83,310.25
			c0.4,0,0.63,0.26,0.63,0.81v6.59h10.76c5.09,0,6.85,2.03,6.85,7.44v11.97c0,0.55-0.2,0.81-0.63,0.81h-2.82
			c-0.4,0-0.63-0.26-0.63-0.81v-10.68c0-3.28-0.57-4.05-2.96-4.05h-10.56v14.73c0,0.55-0.23,0.81-0.63,0.81h-2.82
			c-0.43,0-0.63-0.26-0.63-0.81v-26c0-0.55,0.2-0.81,0.63-0.81H637.83z"/>
		
			<linearGradient id="SVGID_00000037664579598757094530000000823577624314682513_" gradientUnits="userSpaceOnUse" x1="567.0937" y1="335.1902" x2="964.2349" y2="307.0006">
			<stop  offset="0.3855" style="stop-color:#FDF9F6"/>
			<stop  offset="0.9515" style="stop-color:#FEB687"/>
		</linearGradient>
		<path style="fill:url(#SVGID_00000037664579598757094530000000823577624314682513_);" d="M674.26,317.65
			c3.85,0,4.98,1.47,4.98,6.04v3.8c0,1.51-0.49,2.06-1.64,2.06h-14.52v0.66c0,2.32,0.69,3.09,3.16,3.09h12
			c0.34,0,0.52,0.22,0.52,0.66v3.24c0,0.44-0.18,0.66-0.52,0.66h-12.4c-5.09,0-6.84-1.99-6.84-7.44v-5.34
			c0-5.41,1.75-7.44,6.84-7.44H674.26z M674.69,325.76c0.34,0,0.49-0.22,0.49-0.63v-1.29c0-1.43-0.34-1.8-1.75-1.8h-7.19
			c-2.56,0-3.16,0.66-3.16,2.98v0.74H674.69z"/>
		
			<linearGradient id="SVGID_00000140000243668119429260000017718172037694259116_" gradientUnits="userSpaceOnUse" x1="567.0598" y1="334.7136" x2="964.2011" y2="306.524">
			<stop  offset="0.3855" style="stop-color:#FDF9F6"/>
			<stop  offset="0.9515" style="stop-color:#FEB687"/>
		</linearGradient>
		<path style="fill:url(#SVGID_00000140000243668119429260000017718172037694259116_);" d="M697.18,312.09
			c2.07,0,2.42,0.55,3.34,2.17l10.58,17.97c0.09,0.19,0.2,0.26,0.38,0.26h0.26c0.14,0,0.23-0.11,0.23-0.37V312.9
			c0-0.55,0.2-0.81,0.63-0.81h3.08c0.43,0,0.63,0.26,0.63,0.81v21.14c0,2.91-0.77,3.83-2.59,3.83h-2.56c-2.07,0-2.42-0.55-3.31-2.17
			l-10.62-17.98c-0.11-0.18-0.2-0.26-0.38-0.26h-0.26c-0.17,0-0.23,0.11-0.23,0.37v19.23c0,0.55-0.23,0.81-0.63,0.81h-3.08
			c-0.43,0-0.63-0.26-0.63-0.81v-21.14c0-2.91,0.75-3.83,2.56-3.83H697.18z"/>
		
			<linearGradient id="SVGID_00000151542123845613241940000004562407706406692786_" gradientUnits="userSpaceOnUse" x1="567.3965" y1="339.4572" x2="964.5378" y2="311.2677">
			<stop  offset="0.3855" style="stop-color:#FDF9F6"/>
			<stop  offset="0.9515" style="stop-color:#FEB687"/>
		</linearGradient>
		<path style="fill:url(#SVGID_00000151542123845613241940000004562407706406692786_);" d="M734.68,317.65
			c3.85,0,4.98,1.47,4.98,6.04v3.8c0,1.51-0.49,2.06-1.64,2.06h-14.52v0.66c0,2.32,0.69,3.09,3.16,3.09h12
			c0.34,0,0.52,0.22,0.52,0.66v3.24c0,0.44-0.18,0.66-0.52,0.66h-12.4c-5.09,0-6.84-1.99-6.84-7.44v-5.34
			c0-5.41,1.75-7.44,6.84-7.44H734.68z M735.11,325.76c0.34,0,0.49-0.22,0.49-0.63v-1.29c0-1.43-0.34-1.8-1.76-1.8h-7.19
			c-2.56,0-3.16,0.66-3.16,2.98v0.74H735.11z"/>
		
			<linearGradient id="SVGID_00000134970075572929129990000011162546338901224378_" gradientUnits="userSpaceOnUse" x1="567.4991" y1="340.9027" x2="964.6404" y2="312.7131">
			<stop  offset="0.3855" style="stop-color:#FDF9F6"/>
			<stop  offset="0.9515" style="stop-color:#FEB687"/>
		</linearGradient>
		<path style="fill:url(#SVGID_00000134970075572929129990000011162546338901224378_);" d="M746.42,317.65
			c0.4,0,0.61,0.15,0.83,0.44l5.44,6.48l5.35-6.48c0.26-0.29,0.46-0.44,0.84-0.44h3.62c0.52,0,0.63,0.59,0.32,0.96l-7.59,8.99
			l7.79,9.32c0.32,0.4,0.2,0.96-0.29,0.96h-3.91c-0.38,0-0.61-0.11-0.84-0.41l-5.89-7.03l-5.81,7.03c-0.23,0.3-0.43,0.41-0.81,0.41
			h-3.65c-0.52,0-0.63-0.55-0.32-0.96l8.08-9.47l-7.39-8.84c-0.32-0.37-0.17-0.96,0.32-0.96H746.42z"/>
		
			<linearGradient id="SVGID_00000140731075640000269540000004804425730794131359_" gradientUnits="userSpaceOnUse" x1="567.3965" y1="339.457" x2="964.5378" y2="311.2675">
			<stop  offset="0.3855" style="stop-color:#FDF9F6"/>
			<stop  offset="0.9515" style="stop-color:#FEB687"/>
		</linearGradient>
		<path style="fill:url(#SVGID_00000140731075640000269540000004804425730794131359_);" d="M767.38,317.65v-4.86
			c0-0.55,0.23-0.85,0.63-0.85h2.85c0.4,0,0.63,0.3,0.63,0.85v4.86h5.06c0.35,0,0.52,0.22,0.52,0.66v3.2c0,0.44-0.17,0.66-0.52,0.66
			h-5.06v8.36c0,2.06,0.55,2.8,2.42,2.8h2.82c0.34,0,0.52,0.22,0.52,0.66v3.2c0,0.44-0.17,0.66-0.52,0.66h-3.51
			c-4.46,0-5.84-1.92-5.84-7.33v-8.36h-2.73c-0.35,0-0.52-0.22-0.52-0.66v-3.2c0-0.44,0.17-0.66,0.52-0.66H767.38z"/>
		
			<linearGradient id="SVGID_00000078020325701236961430000008526269265298640820_" gradientUnits="userSpaceOnUse" x1="567.556" y1="341.704" x2="964.6973" y2="313.5144">
			<stop  offset="0.3855" style="stop-color:#FDF9F6"/>
			<stop  offset="0.9515" style="stop-color:#FEB687"/>
		</linearGradient>
		<path style="fill:url(#SVGID_00000078020325701236961430000008526269265298640820_);" d="M809.76,312.09
			c0.4,0,0.63,0.26,0.63,0.81v3.57c0,0.52-0.23,0.81-0.63,0.81h-12.63c-2.96,0-3.74,1.07-3.74,4.93v0.19h16.2
			c0.4,0,0.63,0.26,0.63,0.81v3.28c0,0.55-0.23,0.81-0.63,0.81h-16.2v0.44c0,3.86,0.78,4.93,3.74,4.93h12.63
			c0.4,0,0.63,0.29,0.63,0.81v3.58c0,0.55-0.23,0.81-0.63,0.81H797.1c-5.84,0-8.06-2.69-8.06-9.72v-6.34c0-7.03,2.22-9.72,8.06-9.72
			H809.76z"/>
		
			<linearGradient id="SVGID_00000015325986641145815320000004285713937584946307_" gradientUnits="userSpaceOnUse" x1="567.8289" y1="345.5475" x2="964.9701" y2="317.3579">
			<stop  offset="0.3855" style="stop-color:#FDF9F6"/>
			<stop  offset="0.9515" style="stop-color:#FEB687"/>
		</linearGradient>
		<path style="fill:url(#SVGID_00000015325986641145815320000004285713937584946307_);" d="M828.41,317.65
			c0.34,0,0.52,0.22,0.52,0.66v3.24c0,0.44-0.17,0.66-0.52,0.66h-7.65c-2.5,0-3.13,0.81-3.13,3.91v10.94c0,0.55-0.2,0.81-0.63,0.81
			h-2.82c-0.43,0-0.63-0.26-0.63-0.81v-11.97c0-5.41,1.76-7.44,6.82-7.44H828.41z"/>
		
			<linearGradient id="SVGID_00000095333129481318971750000008664043223164732861_" gradientUnits="userSpaceOnUse" x1="567.9385" y1="347.0926" x2="965.0798" y2="318.903">
			<stop  offset="0.3855" style="stop-color:#FDF9F6"/>
			<stop  offset="0.9515" style="stop-color:#FEB687"/>
		</linearGradient>
		<path style="fill:url(#SVGID_00000095333129481318971750000008664043223164732861_);" d="M844.01,317.65
			c5.09,0,6.85,2.03,6.85,7.44v9.83c0,2.36-0.43,2.95-2.13,2.95h-13.69c-3.31,0-4.43-1.43-4.43-5.23v-1.77
			c0-3.42,1.32-5.08,4.43-5.08h11.74v-0.37c0-2.36-0.69-3.2-3.17-3.2h-12c-0.34,0-0.52-0.22-0.52-0.66v-3.24
			c0-0.44,0.17-0.66,0.52-0.66H844.01z M846.78,332.27v-2.69h-10.53c-1.24,0-1.58,0.44-1.58,1.55v0.77c0,1.25,0.35,1.58,1.58,1.58
			h9.64C846.51,333.49,846.78,333.16,846.78,332.27z"/>
		
			<linearGradient id="SVGID_00000049186938556760379340000009044419125905609144_" gradientUnits="userSpaceOnUse" x1="568.1086" y1="349.4895" x2="965.2499" y2="321.2999">
			<stop  offset="0.3855" style="stop-color:#FDF9F6"/>
			<stop  offset="0.9515" style="stop-color:#FEB687"/>
		</linearGradient>
		<path style="fill:url(#SVGID_00000049186938556760379340000009044419125905609144_);" d="M878.28,317.65
			c5.03,0,6.84,1.95,6.84,7.44v5.34c0,5.49-1.81,7.44-6.84,7.44h-8.14c-5.03,0-6.82-1.95-6.82-7.44v-5.34
			c0-5.49,1.78-7.44,6.82-7.44H878.28z M867.4,329.51c0,3.09,0.63,3.87,3.13,3.87h7.34c2.53,0,3.16-0.77,3.16-3.87v-3.5
			c0-3.06-0.63-3.83-3.16-3.83h-7.34c-2.5,0-3.13,0.77-3.13,3.83V329.51z"/>
		
			<linearGradient id="SVGID_00000054960790792358559810000010340339853238611371_" gradientUnits="userSpaceOnUse" x1="567.926" y1="346.9167" x2="965.0673" y2="318.7271">
			<stop  offset="0.3855" style="stop-color:#FDF9F6"/>
			<stop  offset="0.9515" style="stop-color:#FEB687"/>
		</linearGradient>
		<path style="fill:url(#SVGID_00000054960790792358559810000010340339853238611371_);" d="M890.45,317.65v-0.74
			c0-5.45,1.35-7.37,5.81-7.37h3.51c0.34,0,0.52,0.22,0.52,0.66v3.2c0,0.44-0.17,0.66-0.52,0.66h-2.82c-1.84,0-2.39,0.74-2.39,2.84
			v0.74h5.03c0.35,0,0.52,0.22,0.52,0.66v3.2c0,0.44-0.17,0.66-0.52,0.66h-5.03v14.88c0,0.55-0.23,0.81-0.66,0.81h-2.82
			c-0.4,0-0.63-0.26-0.63-0.81v-14.88h-2.76c-0.35,0-0.52-0.22-0.52-0.66v-3.2c0-0.44,0.17-0.66,0.52-0.66H890.45z"/>
		
			<linearGradient id="SVGID_00000097498593561933774420000017293267167477477275_" gradientUnits="userSpaceOnUse" x1="568.1324" y1="349.8237" x2="965.2736" y2="321.6342">
			<stop  offset="0.3855" style="stop-color:#FDF9F6"/>
			<stop  offset="0.9515" style="stop-color:#FEB687"/>
		</linearGradient>
		<path style="fill:url(#SVGID_00000097498593561933774420000017293267167477477275_);" d="M934.19,312.09
			c0.43,0,0.66,0.26,0.66,0.81v3.61c0,0.55-0.23,0.81-0.66,0.81h-9.06v19.74c0,0.55-0.17,0.81-0.61,0.81h-3.13
			c-0.4,0-0.63-0.26-0.63-0.81v-19.74h-9.06c-0.4,0-0.63-0.26-0.63-0.81v-3.61c0-0.55,0.23-0.81,0.63-0.81H934.19z"/>
		
			<linearGradient id="SVGID_00000163053593584437595330000003292699903623577224_" gradientUnits="userSpaceOnUse" x1="568.4462" y1="354.244" x2="965.5874" y2="326.0545">
			<stop  offset="0.3855" style="stop-color:#FDF9F6"/>
			<stop  offset="0.9515" style="stop-color:#FEB687"/>
		</linearGradient>
		<path style="fill:url(#SVGID_00000163053593584437595330000003292699903623577224_);" d="M951.54,317.65
			c0.34,0,0.52,0.22,0.52,0.66v3.24c0,0.44-0.17,0.66-0.52,0.66h-7.65c-2.5,0-3.13,0.81-3.13,3.91v10.94c0,0.55-0.2,0.81-0.63,0.81
			h-2.82c-0.43,0-0.63-0.26-0.63-0.81v-11.97c0-5.41,1.76-7.44,6.82-7.44H951.54z"/>
		
			<linearGradient id="SVGID_00000080891954634218807750000013387610818434466443_" gradientUnits="userSpaceOnUse" x1="568.5558" y1="355.7892" x2="965.6971" y2="327.5996">
			<stop  offset="0.3855" style="stop-color:#FDF9F6"/>
			<stop  offset="0.9515" style="stop-color:#FEB687"/>
		</linearGradient>
		<path style="fill:url(#SVGID_00000080891954634218807750000013387610818434466443_);" d="M967.15,317.65
			c5.09,0,6.85,2.03,6.85,7.44v9.83c0,2.36-0.43,2.95-2.13,2.95h-13.69c-3.31,0-4.43-1.43-4.43-5.23v-1.77
			c0-3.42,1.32-5.08,4.43-5.08h11.74v-0.37c0-2.36-0.69-3.2-3.17-3.2h-12c-0.34,0-0.52-0.22-0.52-0.66v-3.24
			c0-0.44,0.17-0.66,0.52-0.66H967.15z M969.91,332.27v-2.69h-10.53c-1.24,0-1.58,0.44-1.58,1.55v0.77c0,1.25,0.35,1.58,1.58,1.58
			h9.64C969.65,333.49,969.91,333.16,969.91,332.27z"/>
		
			<linearGradient id="SVGID_00000145056634953274603790000014583666045948180412_" gradientUnits="userSpaceOnUse" x1="568.4462" y1="354.2453" x2="965.5875" y2="326.0558">
			<stop  offset="0.3855" style="stop-color:#FDF9F6"/>
			<stop  offset="0.9515" style="stop-color:#FEB687"/>
		</linearGradient>
		<path style="fill:url(#SVGID_00000145056634953274603790000014583666045948180412_);" d="M994.46,317.65v-6.59
			c0-0.55,0.23-0.81,0.63-0.81h2.82c0.43,0,0.63,0.26,0.63,0.81v19.37c0,5.45-1.75,7.44-6.84,7.44h-8.06
			c-5.06,0-6.82-1.99-6.82-7.44v-5.34c0-5.41,1.76-7.44,6.82-7.44H994.46z M994.46,329.4v-7.18h-10.41c-2.47,0-3.13,0.77-3.13,3.91
			v3.28c0,3.13,0.66,3.91,3.13,3.91h7.25C993.77,333.31,994.46,332.53,994.46,329.4z"/>
		
			<linearGradient id="SVGID_00000147931033358389176560000007085098814476066966_" gradientUnits="userSpaceOnUse" x1="568.4961" y1="354.9477" x2="965.6373" y2="326.7581">
			<stop  offset="0.3855" style="stop-color:#FDF9F6"/>
			<stop  offset="0.9515" style="stop-color:#FEB687"/>
		</linearGradient>
		<path style="fill:url(#SVGID_00000147931033358389176560000007085098814476066966_);" d="M1005.57,310.17
			c0.43,0,0.63,0.26,0.63,0.81v3.5c0,0.55-0.2,0.85-0.63,0.85h-2.82c-0.43,0-0.63-0.3-0.63-0.85v-3.5c0-0.55,0.2-0.81,0.63-0.81
			H1005.57z M1005.57,317.65c0.4,0,0.63,0.3,0.63,0.81v18.6c0,0.55-0.23,0.81-0.63,0.81h-2.82c-0.43,0-0.63-0.26-0.63-0.81v-18.6
			c0-0.51,0.2-0.81,0.63-0.81H1005.57z"/>
		
			<linearGradient id="SVGID_00000131346009942241393420000009670483078664875708_" gradientUnits="userSpaceOnUse" x1="568.8574" y1="360.0382" x2="965.9987" y2="331.8487">
			<stop  offset="0.3855" style="stop-color:#FDF9F6"/>
			<stop  offset="0.9515" style="stop-color:#FEB687"/>
		</linearGradient>
		<path style="fill:url(#SVGID_00000131346009942241393420000009670483078664875708_);" d="M1024.87,317.65
			c5.09,0,6.85,2.03,6.85,7.44v11.97c0,0.55-0.2,0.81-0.63,0.81h-2.82c-0.4,0-0.63-0.26-0.63-0.81v-10.68
			c0-3.28-0.57-4.05-2.96-4.05h-7.65c-2.47,0-3.13,0.92-3.13,4.05v10.68c0,0.55-0.2,0.81-0.63,0.81h-2.82
			c-0.43,0-0.63-0.26-0.63-0.81v-11.97c0-5.41,1.75-7.44,6.82-7.44H1024.87z"/>
		
			<linearGradient id="SVGID_00000072970251541034769650000008675162950547989403_" gradientUnits="userSpaceOnUse" x1="569.2567" y1="365.6628" x2="966.3979" y2="337.4732">
			<stop  offset="0.3855" style="stop-color:#FDF9F6"/>
			<stop  offset="0.9515" style="stop-color:#FEB687"/>
		</linearGradient>
		<path style="fill:url(#SVGID_00000072970251541034769650000008675162950547989403_);" d="M1049.91,317.65
			c5.03,0,6.84,1.99,6.84,7.44v13.41c0,5.52-1.78,7.51-6.84,7.51h-13.55c-0.34,0-0.52-0.22-0.52-0.66v-3.24
			c0-0.44,0.17-0.66,0.52-0.66h13.15c2.5,0,3.16-0.77,3.16-3.98v-0.55h-10.82c-4.92,0-6.82-2.25-6.82-7.88v-3.87
			c0-5.52,1.78-7.51,6.82-7.51H1049.91z M1042.25,332.49h10.41v-6.92c0-2.69-0.69-3.39-3.16-3.39h-7.25c-2.45,0-3.13,0.7-3.13,3.28
			v3.5C1039.12,331.65,1039.89,332.49,1042.25,332.49z"/>
	</g>
	<g>
		
			<linearGradient id="SVGID_00000013894978181423156300000015408606883040006060_" gradientUnits="userSpaceOnUse" x1="-57.0079" y1="389.6136" x2="103.8384" y2="197.2613">
			<stop  offset="0.3855" style="stop-color:#FDF9F6"/>
			<stop  offset="0.9515" style="stop-color:#FEB687"/>
		</linearGradient>
		<path style="fill:url(#SVGID_00000013894978181423156300000015408606883040006060_);" d="M62.97,265.62h5.07v-37.83h-5.2v-2.23
			c-0.02-0.18-0.03-0.37-0.02-0.59c0.01-0.13,0.01-0.26,0.02-0.39v-6.29h-2v9.51h-5.28v37.67h5.28v9.08
			c0.01,0.67,0.02,1.34,0.04,2.01h2.09V265.62z"/>
		
			<linearGradient id="SVGID_00000129921040405459353450000013322351044985287308_" gradientUnits="userSpaceOnUse" x1="-57.1731" y1="389.4755" x2="103.6732" y2="197.1231">
			<stop  offset="0.3855" style="stop-color:#FDF9F6"/>
			<stop  offset="0.9515" style="stop-color:#FEB687"/>
		</linearGradient>
		<path style="fill:url(#SVGID_00000129921040405459353450000013322351044985287308_);" d="M43.99,287.98h5.07v-37.83h-5.2v-2.23
			c-0.02-0.18-0.03-0.37-0.02-0.59c0.01-0.13,0.01-0.26,0.02-0.39v-6.29h-2v9.51h-5.28v37.67h5.28v9.08
			c0.01,0.67,0.02,1.34,0.04,2.01h2.09V287.98z"/>
		
			<linearGradient id="SVGID_00000090995866294469348460000003421724699230133651_" gradientUnits="userSpaceOnUse" x1="-60.268" y1="386.8875" x2="100.5783" y2="194.5351">
			<stop  offset="0.3855" style="stop-color:#FDF9F6"/>
			<stop  offset="0.9515" style="stop-color:#FEB687"/>
		</linearGradient>
		<path style="fill:url(#SVGID_00000090995866294469348460000003421724699230133651_);" d="M25.08,304.31h5.07v-37.83h-5.2v-2.23
			c-0.02-0.18-0.03-0.37-0.02-0.59c0.01-0.13,0.01-0.26,0.02-0.39v-6.29h-2v9.51h-5.28v37.67h5.28v9.08
			c0.01,0.67,0.02,1.34,0.04,2.01h2.09V304.31z"/>
		<g>
			
				<linearGradient id="SVGID_00000168119166402016887880000002380116180565324449_" gradientUnits="userSpaceOnUse" x1="-31.455" y1="410.9811" x2="129.3913" y2="218.6288">
				<stop  offset="0.3855" style="stop-color:#FDF9F6"/>
				<stop  offset="0.9515" style="stop-color:#FEB687"/>
			</linearGradient>
			<path style="fill:url(#SVGID_00000168119166402016887880000002380116180565324449_);" d="M105.23,225.16
				c-8.34,6.71-16.38,13.17-24.43,19.64c-0.19-0.12-0.38-0.25-0.56-0.37c13.59-34.17,26.52-68.6,41.06-102.4
				c0.2-0.01,0.39-0.03,0.59-0.04c13.58,34.16,27.16,68.31,40.75,102.47c-0.21,0.16-0.42,0.31-0.64,0.47
				c-8.07-6.48-16.14-12.97-24.57-19.74c0,1.91,0.02,3.34,0,4.77c-0.14,8.23,0.04,16.48-0.52,24.69
				c-0.75,11.06-2.25,22.07-4.81,32.88c-2.31,9.77-5.82,19.09-11.36,27.52c-2.94,4.48-7.16,7.57-12.21,10.24
				c-0.23-1.59-0.55-2.91-0.58-4.25c-0.41-14.42-0.76-28.84-1.15-43.26c-0.45-17.05-0.92-34.1-1.39-51.15
				C105.38,226.29,105.32,225.95,105.23,225.16z"/>
			
				<linearGradient id="SVGID_00000062877092405865215530000008777277083231333544_" gradientUnits="userSpaceOnUse" x1="-8.6314" y1="430.0664" x2="152.215" y2="237.7141">
				<stop  offset="0.3855" style="stop-color:#FDF9F6"/>
				<stop  offset="0.9515" style="stop-color:#FEB687"/>
			</linearGradient>
			<path style="fill:url(#SVGID_00000062877092405865215530000008777277083231333544_);" d="M100.67,261.14
				c0.19,25.43,0.63,50.85,0.47,76.73c-4.73-1.85-9.11-3.53-13.46-5.31c-0.43-0.17-0.74-0.86-0.91-1.37
				c-0.15-0.48-0.04-1.04-0.05-1.57c-0.19-13.64-0.37-27.28-0.59-40.92c-0.03-1.61,0.44-2.8,1.65-4c4-3.97,6.56-8.92,8.74-14.04
				c1.16-2.73,1.98-5.61,2.96-8.41c0.14-0.4,0.35-0.79,0.52-1.18C100.22,261.1,100.45,261.12,100.67,261.14z"/>
			
				<linearGradient id="SVGID_00000146462812921440598680000009389126785178705849_" gradientUnits="userSpaceOnUse" x1="-18.0291" y1="422.208" x2="142.8173" y2="229.8557">
				<stop  offset="0.3855" style="stop-color:#FDF9F6"/>
				<stop  offset="0.9515" style="stop-color:#FEB687"/>
			</linearGradient>
			<path style="fill:url(#SVGID_00000146462812921440598680000009389126785178705849_);" d="M79.26,292.78c0,11.82,0,23.46,0,35.73
				c-4.29-3.18-8.02-6.26-12.08-8.81c-2.05-1.29-2.17-2.75-2.15-4.72c0.05-4.37,0.01-8.75-0.09-13.12
				c-0.04-1.72,0.38-2.52,2.23-3.24c3.87-1.49,7.5-3.61,11.23-5.47C78.6,293.05,78.81,292.97,79.26,292.78z"/>
		</g>
		<g>
			
				<linearGradient id="SVGID_00000015336872719394914680000010555427858989610120_" gradientUnits="userSpaceOnUse" x1="11.9677" y1="447.2915" x2="172.8141" y2="254.9392">
				<stop  offset="0.3855" style="stop-color:#FDF9F6"/>
				<stop  offset="0.9515" style="stop-color:#FEB687"/>
			</linearGradient>
			<path style="fill:url(#SVGID_00000015336872719394914680000010555427858989610120_);" d="M210.93,292.19
				c-0.55,1.12-1.11,2.24-1.63,3.37c-4,8.71-9.17,16.64-15.53,23.82c-14.43,16.28-32.3,26.67-53.62,30.92
				c-16.77,3.34-33.32,2.33-49.51-3.43c-12.22-4.35-23.44-10.47-33.04-19.24c-4.21-3.85-8.02-8.14-11.96-12.29H32.57
				c2.67,3.45,5.2,7.01,8.06,10.3c5.48,6.32,11.41,12.21,18.44,16.81c5.05,3.3,10.17,6.56,15.53,9.31c6.35,3.27,12.99,6.02,20,7.58
				c5.67,1.27,11.36,2.59,17.11,3.34c8.07,1.06,16.19,0.69,24.27-0.42c7.94-1.09,15.73-2.81,23.24-5.63
				c10.61-3.99,20.48-9.39,29.26-16.58c8.48-6.94,16.11-14.71,22.13-23.96c4.89-7.51,8.96-15.43,12.03-23.85
				c0.01-0.01,0.01-0.03,0.01-0.05H210.93z"/>
			
				<linearGradient id="SVGID_00000152963801898328108020000016994368801929578661_" gradientUnits="userSpaceOnUse" x1="-84.2946" y1="366.7963" x2="76.5518" y2="174.444">
				<stop  offset="0.3855" style="stop-color:#FDF9F6"/>
				<stop  offset="0.9515" style="stop-color:#FEB687"/>
			</linearGradient>
			<path style="fill:url(#SVGID_00000152963801898328108020000016994368801929578661_);" d="M100.69,158.76
				c-24.99,5.22-45.43,17.58-61.39,37.54c-12.62,15.78-20.77,39.22-22.42,52.73h9.63c0.47-0.76,0.75-1.64,0.93-2.66
				c1.42-7.82,3.54-15.43,6.82-22.72c7.03-15.62,17.31-28.57,31.09-38.74c9.97-7.36,20.92-12.65,32.94-15.68
				c0.9-0.23,1.72-0.48,2.41-0.91V158.76z"/>
			
				<linearGradient id="SVGID_00000062172707048670661280000002746780381684018070_" gradientUnits="userSpaceOnUse" x1="-10.9552" y1="428.1232" x2="149.8912" y2="235.7709">
				<stop  offset="0.3855" style="stop-color:#FDF9F6"/>
				<stop  offset="0.9515" style="stop-color:#FEB687"/>
			</linearGradient>
			<path style="fill:url(#SVGID_00000062172707048670661280000002746780381684018070_);" d="M222.74,233.22
				c-2.95-9.81-6.99-19.12-12.44-27.84c-6.9-11.03-15.48-20.45-26.04-28.05c-12.4-8.92-25.88-15.5-40.93-18.61
				c-0.48-0.1-0.95-0.19-1.44-0.28v9.64c0.38,0.25,0.82,0.44,1.34,0.61c5.04,1.63,10.14,3.12,15.02,5.13
				c8.85,3.65,16.71,8.99,24.09,15.04c6.36,5.21,11.81,11.24,16.57,17.95c5.76,8.12,9.94,16.99,13.24,26.32
				c0.22,0.61,0.36,1.32,0.51,2h10.43C223.06,234.58,222.96,233.94,222.74,233.22z"/>
			
				<linearGradient id="SVGID_00000118378878183423743650000001586025066196044473_" gradientUnits="userSpaceOnUse" x1="28.3585" y1="460.9976" x2="189.2048" y2="268.6452">
				<stop  offset="0.3855" style="stop-color:#FDF9F6"/>
				<stop  offset="0.9515" style="stop-color:#FEB687"/>
			</linearGradient>
			<path style="fill:url(#SVGID_00000118378878183423743650000001586025066196044473_);" d="M238.45,240.84
				c-4.7-1.42-10.25,0.31-12.01,4.29c-0.94,2.11-2.19,2.16-3.92,2.16c-10.69-0.01-21.38,0-32.07,0.05c-0.74,0-1.66,0.23-2.2,0.7
				c-2.28,2-4.45,4.13-6.65,6.22c-4.83,4.58-9.64,9.18-14.52,13.7c-0.61,0.57-1.6,0.99-2.43,1.02c-3.09,0.12-6.19,0.05-9.28,0.05
				v0.06c-2.86,0-5.72-0.03-8.58,0.01v4.22c0.68,0.01,1.35,0.03,2.03,0.04c6.07,0.09,12.14,0.2,18.21,0.22
				c0.59,0,1.29-0.44,1.74-0.88c4.08-3.91,8.1-7.88,12.18-11.79c2.69-2.58,5.38-5.16,8.19-7.6c0.81-0.7,2.03-1.29,3.06-1.3
				c10.69-0.12,21.38-0.09,32.06-0.14c1.03,0,1.51,0.39,1.89,1.38c1.57,4.12,5.91,6.34,10.57,5.56c3.82-0.64,7.59-4.66,7.86-8.39
				C244.9,246.12,242.26,241.99,238.45,240.84z"/>
			
				<linearGradient id="SVGID_00000034785873425064869500000004669782425296340624_" gradientUnits="userSpaceOnUse" x1="31.8999" y1="463.959" x2="192.7463" y2="271.6066">
				<stop  offset="0.3855" style="stop-color:#FDF9F6"/>
				<stop  offset="0.9515" style="stop-color:#FEB687"/>
			</linearGradient>
			<path style="fill:url(#SVGID_00000034785873425064869500000004669782425296340624_);" d="M227.38,268.09
				c-3.41-5.27-12.94-6.38-16.67,1.31c-0.66,1.36-1.47,1.7-2.83,1.68c-7.77-0.1-15.54-0.09-23.3-0.22
				c-2.38-0.04-4.26,0.66-5.95,2.37c-2.55,2.57-5.24,5-7.93,7.42c-0.57,0.52-1.38,1.03-2.1,1.07c-2.8,0.16-5.6,0.15-8.41,0.17
				c-5.45,0.05-10.89,0.06-16.34,0.12v4.04c2.99,0.06,5.97,0.02,8.96,0.15c4.6,0.2,9.18,0.71,13.78,0.74
				c2.13,0.02,4.76-0.13,6.3-1.33c3.19-2.48,5.84-5.68,8.64-8.64c0.95-1.01,1.98-1.51,3.38-1.49c3.8,0.05,7.59,0.02,11.39,0.02
				c0,0.03,0,0.07,0,0.1c4.03,0,8.06,0.01,12.09-0.01c1.11-0.01,1.81,0.4,2.34,1.43c2.49,4.85,7.14,6.63,12.25,4.77
				C228.35,279.82,230.45,272.83,227.38,268.09z"/>
			
				<linearGradient id="SVGID_00000023989086533305889800000011181778403318549401_" gradientUnits="userSpaceOnUse" x1="29.2708" y1="461.7605" x2="190.1172" y2="269.4081">
				<stop  offset="0.3855" style="stop-color:#FDF9F6"/>
				<stop  offset="0.9515" style="stop-color:#FEB687"/>
			</linearGradient>
			<path style="fill:url(#SVGID_00000023989086533305889800000011181778403318549401_);" d="M184.22,287.83
				c-3.49-0.73-8.14,1.48-9.87,5.17c-0.64,1.36-1.4,1.66-2.78,1.67c-10.04,0.06-20.08,0.24-30.12,0.3c-0.26,0-0.5,0.01-0.72,0.03
				v4.26c4.93-0.03,9.86-0.01,14.79-0.01c0,0,0,0.01,0,0.01c4.9,0,9.81,0.1,14.71-0.05c2.08-0.06,3.31,0.37,4.38,2.39
				c2.07,3.92,6.62,5.64,10.77,4.55c3.66-0.95,6.55-4.78,6.85-8.64C192.5,294.03,189.61,288.97,184.22,287.83z"/>
			
				<linearGradient id="SVGID_00000067229735276988470500000010322850072294386589_" gradientUnits="userSpaceOnUse" x1="-76.5421" y1="373.279" x2="84.3043" y2="180.9267">
				<stop  offset="0.3855" style="stop-color:#FDF9F6"/>
				<stop  offset="0.9515" style="stop-color:#FEB687"/>
			</linearGradient>
			<path style="fill:url(#SVGID_00000067229735276988470500000010322850072294386589_);" d="M95.43,176.05
				c-13.15,4.1-24.65,11.18-34.73,20.63c-9.34,8.75-16.22,19.15-20.97,30.89h4.97c0.51-0.64,0.97-1.37,1.37-2.22
				c3.86-8.29,9.17-15.67,15.6-22.24c9.52-9.72,20.36-17.38,33.33-21.8c0.14-0.05,0.29-0.14,0.43-0.25V176.05z"/>
			
				<linearGradient id="SVGID_00000039821389188473124290000015965834490680831876_" gradientUnits="userSpaceOnUse" x1="-12.0186" y1="427.234" x2="148.8278" y2="234.8816">
				<stop  offset="0.3855" style="stop-color:#FDF9F6"/>
				<stop  offset="0.9515" style="stop-color:#FEB687"/>
			</linearGradient>
			<path style="fill:url(#SVGID_00000039821389188473124290000015965834490680831876_);" d="M199.02,229.05
				c0.17,0.12,0.34,0.22,0.51,0.34h4.32c-4.53-12.78-12.03-23.7-21.98-33.01c-9.96-9.32-21.34-16.23-34.23-20.41v5.4
				c0.1,0.04,0.2,0.07,0.28,0.11c4.9,2.28,9.99,4.21,14.66,6.89c11.45,6.57,20.77,15.6,28.32,26.38c2.72,3.87,4.81,8.19,7.16,12.31
				C198.44,227.71,198.5,228.69,199.02,229.05z"/>
			
				<linearGradient id="SVGID_00000029004830777135911520000007259200723477927314_" gradientUnits="userSpaceOnUse" x1="10.4504" y1="446.0227" x2="171.2967" y2="253.6704">
				<stop  offset="0.3855" style="stop-color:#FDF9F6"/>
				<stop  offset="0.9515" style="stop-color:#FEB687"/>
			</linearGradient>
			<path style="fill:url(#SVGID_00000029004830777135911520000007259200723477927314_);" d="M185.87,315.62
				c-2.57,2.24-4.93,4.73-7.51,6.96c-10.07,8.68-21.58,14.74-34.43,18.06c-4.78,1.24-9.73,1.86-14.64,2.53
				c-7.34,1-14.74,0.65-22-0.51c-7.58-1.21-14.98-3.31-21.97-6.7c-6.53-3.17-12.88-6.6-18.62-11.08c-1.82-1.42-3.7-2.81-5.36-4.41
				c-2.61-2.54-5.08-5.21-7.6-7.84h-1.55c4.56,6.18,10.31,11.16,16.52,15.71c14.2,10.41,30.11,16.42,47.59,17.6
				c21.32,1.44,40.76-4.41,58.13-16.89c5.47-3.93,10.41-8.45,14.89-13.43H185.87z"/>
		</g>
	</g>
	<g>
		
			<linearGradient id="SVGID_00000036933897664732918950000003218096464675958423_" gradientUnits="userSpaceOnUse" x1="254.7248" y1="270.5907" x2="806.9087" y2="86.5294">
			<stop  offset="0.3855" style="stop-color:#FDF9F6"/>
			<stop  offset="0.9515" style="stop-color:#FEB687"/>
		</linearGradient>
		<path style="fill:url(#SVGID_00000036933897664732918950000003218096464675958423_);" d="M361.23,215.4c1.8,0,2.77,0.84,2.77,2.65
			v11.79c0,1.8-0.96,2.65-2.77,2.65h-37.88v64.46c0,1.8-0.72,2.65-2.53,2.65h-13.11c-1.68,0-2.65-0.84-2.65-2.65v-64.46h-37.88
			c-1.68,0-2.65-0.84-2.65-2.65v-11.79c0-1.8,0.96-2.65,2.65-2.65H361.23z"/>
		
			<linearGradient id="SVGID_00000133529902557060566640000016250572212616425890_" gradientUnits="userSpaceOnUse" x1="266.9095" y1="307.1447" x2="819.0934" y2="123.0835">
			<stop  offset="0.3855" style="stop-color:#FDF9F6"/>
			<stop  offset="0.9515" style="stop-color:#FEB687"/>
		</linearGradient>
		<path style="fill:url(#SVGID_00000133529902557060566640000016250572212616425890_);" d="M433.87,233.56
			c1.44,0,2.16,0.72,2.16,2.17v10.58c0,1.44-0.72,2.16-2.16,2.16h-31.99c-10.46,0-13.11,2.65-13.11,12.75v35.72
			c0,1.8-0.84,2.65-2.65,2.65h-11.79c-1.8,0-2.65-0.84-2.65-2.65v-39.09c0-17.68,7.34-24.29,28.5-24.29H433.87z"/>
		
			<linearGradient id="SVGID_00000124846145780892254650000007354118643292942526_" gradientUnits="userSpaceOnUse" x1="276.4918" y1="335.8918" x2="828.6757" y2="151.8305">
			<stop  offset="0.3855" style="stop-color:#FDF9F6"/>
			<stop  offset="0.9515" style="stop-color:#FEB687"/>
		</linearGradient>
		<path style="fill:url(#SVGID_00000124846145780892254650000007354118643292942526_);" d="M499.18,233.56
			c21.29,0,28.62,6.62,28.62,24.29v32.11c0,7.7-1.8,9.62-8.9,9.62h-57.25c-13.83,0-18.52-4.69-18.52-17.08v-5.77
			c0-11.18,5.53-16.6,18.52-16.6h49.07v-1.2c0-7.7-2.89-10.46-13.23-10.46h-50.15c-1.44,0-2.17-0.72-2.17-2.16v-10.58
			c0-1.44,0.72-2.17,2.17-2.17H499.18z M510.72,281.31v-8.78h-44.02c-5.17,0-6.61,1.44-6.61,5.05v2.53c0,4.09,1.44,5.17,6.61,5.17
			H507C509.64,285.27,510.72,284.19,510.72,281.31z"/>
		
			<linearGradient id="SVGID_00000036230666020256410710000010199352754397416070_" gradientUnits="userSpaceOnUse" x1="285.7836" y1="363.7672" x2="837.9675" y2="179.7059">
			<stop  offset="0.3855" style="stop-color:#FDF9F6"/>
			<stop  offset="0.9515" style="stop-color:#FEB687"/>
		</linearGradient>
		<path style="fill:url(#SVGID_00000036230666020256410710000010199352754397416070_);" d="M613.43,233.56v-21.53
			c0-1.8,0.96-2.65,2.65-2.65h11.79c1.8,0,2.65,0.84,2.65,2.65v63.26c0,17.8-7.34,24.29-28.62,24.29h-33.67
			c-21.17,0-28.5-6.49-28.5-24.29v-17.44c0-17.68,7.34-24.29,28.5-24.29H613.43z M613.43,271.93v-23.45H569.9
			c-10.34,0-13.11,2.53-13.11,12.75v10.7c0,10.22,2.77,12.75,13.11,12.75h30.31C610.55,284.67,613.43,282.15,613.43,271.93z"/>
		
			<linearGradient id="SVGID_00000053540917304056270200000008903215382982227120_" gradientUnits="userSpaceOnUse" x1="297.3135" y1="398.357" x2="849.4974" y2="214.2957">
			<stop  offset="0.3855" style="stop-color:#FDF9F6"/>
			<stop  offset="0.9515" style="stop-color:#FEB687"/>
		</linearGradient>
		<path style="fill:url(#SVGID_00000053540917304056270200000008903215382982227120_);" d="M706.64,233.56
			c16.12,0,20.81,4.81,20.81,19.72v12.39c0,4.93-2.04,6.74-6.86,6.74h-60.73v2.17c0,7.58,2.89,10.1,13.23,10.1h50.15
			c1.44,0,2.17,0.72,2.17,2.16v10.58c0,1.44-0.72,2.17-2.17,2.17H671.4c-21.29,0-28.62-6.49-28.62-24.29v-17.44
			c0-17.68,7.34-24.29,28.62-24.29H706.64z M708.44,260.02c1.44,0,2.04-0.72,2.04-2.04v-4.21c0-4.69-1.44-5.89-7.34-5.89h-30.07
			c-10.7,0-13.23,2.16-13.23,9.74v2.41H708.44z"/>
		
			<linearGradient id="SVGID_00000033344773962715889850000003804149354771367355_" gradientUnits="userSpaceOnUse" x1="300.3549" y1="407.4809" x2="852.5388" y2="223.4196">
			<stop  offset="0.3855" style="stop-color:#FDF9F6"/>
			<stop  offset="0.9515" style="stop-color:#FEB687"/>
		</linearGradient>
		<path style="fill:url(#SVGID_00000033344773962715889850000003804149354771367355_);" d="M808.87,215.4
			c18.4,0,25.86,8.54,25.86,24.65v9.02c0,16.24-7.46,25.14-25.86,25.14h-49.79v22.73c0,1.8-0.84,2.65-2.65,2.65h-12.99
			c-1.8,0-2.65-0.84-2.65-2.65v-77.93c0-2.41,1.2-3.61,3.61-3.61H808.87z M805.14,257.61c8.18,0,11.19-3.25,11.19-10.34v-4.57
			c0-7.22-3.01-10.46-11.19-10.46h-44.5c-1.08,0-1.56,0.48-1.56,1.44v23.93H805.14z"/>
		
			<linearGradient id="SVGID_00000070797001115784480750000000224643644763610037_" gradientUnits="userSpaceOnUse" x1="309.8761" y1="436.0445" x2="862.0599" y2="251.9832">
			<stop  offset="0.3855" style="stop-color:#FDF9F6"/>
			<stop  offset="0.9515" style="stop-color:#FEB687"/>
		</linearGradient>
		<path style="fill:url(#SVGID_00000070797001115784480750000000224643644763610037_);" d="M860.83,209.15
			c1.8,0,2.65,0.84,2.65,2.65v11.43c0,1.8-0.84,2.77-2.65,2.77h-11.79c-1.8,0-2.65-0.96-2.65-2.77v-11.43c0-1.8,0.84-2.65,2.65-2.65
			H860.83z M860.83,233.56c1.68,0,2.65,0.96,2.65,2.65v60.73c0,1.8-0.96,2.65-2.65,2.65h-11.79c-1.8,0-2.65-0.84-2.65-2.65v-60.73
			c0-1.68,0.84-2.65,2.65-2.65H860.83z"/>
		
			<linearGradient id="SVGID_00000078038424252050020870000017707834116278532239_" gradientUnits="userSpaceOnUse" x1="313.1593" y1="445.8943" x2="865.3432" y2="261.833">
			<stop  offset="0.3855" style="stop-color:#FDF9F6"/>
			<stop  offset="0.9515" style="stop-color:#FEB687"/>
		</linearGradient>
		<path style="fill:url(#SVGID_00000078038424252050020870000017707834116278532239_);" d="M893.3,209.39
			c1.68,0,2.65,0.84,2.65,2.65v84.91c0,1.8-0.96,2.65-2.65,2.65h-11.79c-1.8,0-2.65-0.84-2.65-2.65v-84.91
			c0-1.8,0.84-2.65,2.65-2.65H893.3z"/>
		
			<linearGradient id="SVGID_00000018917965025780355950000001013420909906510231_" gradientUnits="userSpaceOnUse" x1="323.6263" y1="477.295" x2="875.8101" y2="293.2338">
			<stop  offset="0.3855" style="stop-color:#FDF9F6"/>
			<stop  offset="0.9515" style="stop-color:#FEB687"/>
		</linearGradient>
		<path style="fill:url(#SVGID_00000018917965025780355950000001013420909906510231_);" d="M972.79,233.56
			c21.05,0,28.62,6.37,28.62,24.29v17.44c0,17.92-7.58,24.29-28.62,24.29h-34.03c-21.05,0-28.5-6.37-28.5-24.29v-17.44
			c0-17.92,7.46-24.29,28.5-24.29H972.79z M927.33,272.29c0,10.1,2.65,12.63,13.11,12.63h30.67c10.58,0,13.23-2.53,13.23-12.63
			v-11.43c0-9.98-2.65-12.51-13.23-12.51h-30.67c-10.46,0-13.11,2.53-13.11,12.51V272.29z"/>
		
			<linearGradient id="SVGID_00000178912855113849489430000018123229143297850538_" gradientUnits="userSpaceOnUse" x1="329.5219" y1="494.9821" x2="881.7058" y2="310.9208">
			<stop  offset="0.3855" style="stop-color:#FDF9F6"/>
			<stop  offset="0.9515" style="stop-color:#FEB687"/>
		</linearGradient>
		<path style="fill:url(#SVGID_00000178912855113849489430000018123229143297850538_);" d="M1021.87,233.56v-15.87
			c0-1.8,0.96-2.77,2.65-2.77h11.91c1.68,0,2.65,0.96,2.65,2.77v15.87h21.17c1.44,0,2.17,0.72,2.17,2.17v10.46
			c0,1.44-0.72,2.17-2.17,2.17h-21.17v27.3c0,6.74,2.29,9.14,10.1,9.14h11.79c1.44,0,2.17,0.72,2.17,2.17v10.46
			c0,1.44-0.72,2.17-2.17,2.17h-14.67c-18.64,0-24.41-6.25-24.41-23.93v-27.3h-11.43c-1.44,0-2.16-0.72-2.16-2.17v-10.46
			c0-1.44,0.72-2.17,2.16-2.17H1021.87z"/>
	</g>
</g>
</svg>
